<?xml version="1.0" encoding="UTF-8"?>
<svg id="Vector" xmlns="http://www.w3.org/2000/svg" viewBox="0 0 410.08 173.95">
  <defs>
    <style>
      .cls-1 {
        fill: #9160a0;
        stroke-width: 0px;
      }
    </style>
  </defs>
  <g>
    <path class="cls-1" d="M39,148.49v-24.19h-13.5v-2.81h30.38v2.81h-13.5v24.19h-3.38Z"/>
    <path class="cls-1" d="M60.9,148.49v-27h26.51v2.81h-23.13v9h22.17v2.81h-22.17v9.56h23.62v2.81h-27Z"/>
    <path class="cls-1" d="M91.27,135.34v-.7c0-2.39.12-4.4.35-6.02s.64-2.94,1.21-3.96,1.36-1.8,2.35-2.34,2.24-.91,3.74-1.1,3.3-.29,5.41-.29h7.08c2.41,0,4.45.11,6.11.34s2.99.68,4.01,1.35,1.75,1.66,2.21,2.97.69,3.04.69,5.19h-3.38c0-1.7-.15-3.02-.46-3.96s-.82-1.63-1.54-2.05-1.7-.68-2.94-.78-2.81-.15-4.69-.15h-7.08c-1.68,0-3.09.05-4.24.15s-2.08.33-2.8.69-1.27.92-1.65,1.7-.64,1.83-.78,3.16-.21,3.04-.21,5.1v.7c0,1.99.07,3.64.21,4.96s.4,2.36.78,3.15.93,1.37,1.65,1.76,1.66.64,2.8.76,2.56.18,4.24.18h7.08c1.89,0,3.45-.04,4.69-.12s2.22-.32,2.94-.72,1.23-1.06,1.54-2,.46-2.24.46-3.93h3.38c0,2.16-.23,3.88-.69,5.17s-1.19,2.26-2.21,2.91-2.35,1.08-4.01,1.29-3.69.32-6.11.32h-7.08c-2.64,0-4.8-.18-6.5-.54s-3.03-1.02-3.98-1.98-1.62-2.34-2-4.15-.57-4.15-.57-7.05Z"/>
    <path class="cls-1" d="M130.17,148.49v-27h3.38v11.81h24.75v-11.81h3.38v27h-3.38v-12.38h-24.75v12.38h-3.38Z"/>
    <path class="cls-1" d="M168.49,148.49v-27h3.52l27.12,22.83h.04v-22.83h3.38v27h-3.52l-27.12-23.03h-.04v23.03h-3.38Z"/>
    <path class="cls-1" d="M221.23,149.05c-2.64,0-4.8-.18-6.5-.54s-3.03-1.02-3.98-1.98-1.62-2.34-2-4.15-.57-4.15-.57-7.05v-.7c0-2.39.12-4.4.35-6.02s.64-2.94,1.21-3.96,1.36-1.8,2.35-2.34,2.24-.91,3.74-1.1,3.3-.29,5.41-.29h7.08c2.11,0,3.91.1,5.41.29s2.75.56,3.74,1.1,1.77,1.32,2.35,2.34.98,2.34,1.21,3.96.35,3.63.35,6.02v.7c0,2.89-.19,5.24-.57,7.05s-1.05,3.19-2,4.15-2.28,1.62-3.98,1.98-3.87.54-6.5.54h-7.08ZM221.23,146.13h7.08c1.68,0,3.09-.06,4.24-.18s2.08-.37,2.8-.76,1.27-.97,1.65-1.76.64-1.83.78-3.15.21-2.96.21-4.96v-.7c0-2.06-.07-3.76-.21-5.1s-.4-2.39-.78-3.16-.93-1.34-1.65-1.7-1.66-.59-2.8-.69-2.56-.15-4.24-.15h-7.08c-1.68,0-3.09.05-4.24.15s-2.08.33-2.8.69-1.27.92-1.65,1.7-.64,1.83-.78,3.16-.21,3.04-.21,5.1v.7c0,1.99.07,3.64.21,4.96s.4,2.36.78,3.15.93,1.37,1.65,1.76,1.66.64,2.8.76,2.56.18,4.24.18Z"/>
    <path class="cls-1" d="M247,148.49v-27h3.38v24.19h21.38v2.81h-24.75Z"/>
    <path class="cls-1" d="M288.18,149.05c-2.64,0-4.8-.18-6.5-.54s-3.03-1.02-3.98-1.98-1.62-2.34-2-4.15-.57-4.15-.57-7.05v-.7c0-2.39.12-4.4.35-6.02s.64-2.94,1.21-3.96,1.36-1.8,2.35-2.34,2.24-.91,3.74-1.1,3.3-.29,5.41-.29h7.08c2.11,0,3.91.1,5.41.29s2.75.56,3.74,1.1,1.77,1.32,2.35,2.34.98,2.34,1.21,3.96.35,3.63.35,6.02v.7c0,2.89-.19,5.24-.57,7.05s-1.05,3.19-2,4.15-2.28,1.62-3.98,1.98-3.87.54-6.5.54h-7.08ZM288.18,146.13h7.08c1.68,0,3.09-.06,4.24-.18s2.08-.37,2.8-.76,1.27-.97,1.65-1.76.64-1.83.78-3.15.21-2.96.21-4.96v-.7c0-2.06-.07-3.76-.21-5.1s-.4-2.39-.78-3.16-.93-1.34-1.65-1.7-1.66-.59-2.8-.69-2.56-.15-4.24-.15h-7.08c-1.68,0-3.09.05-4.24.15s-2.08.33-2.8.69-1.27.92-1.65,1.7-.64,1.83-.78,3.16-.21,3.04-.21,5.1v.7c0,1.99.07,3.64.21,4.96s.4,2.36.78,3.15.93,1.37,1.65,1.76,1.66.64,2.8.76,2.56.18,4.24.18Z"/>
    <path class="cls-1" d="M312.83,135.34v-.7c0-2.39.12-4.4.35-6.02s.64-2.94,1.21-3.96,1.36-1.8,2.35-2.34,2.24-.91,3.74-1.1,3.3-.29,5.41-.29h6.61c2.77,0,5.01.11,6.74.32s3.06.62,3.99,1.21,1.57,1.47,1.92,2.61.53,2.64.53,4.49h-3.38c0-1.39-.12-2.48-.37-3.26s-.71-1.34-1.39-1.69-1.67-.56-2.96-.64-2.99-.12-5.09-.12h-6.61c-1.68,0-3.09.05-4.24.15s-2.08.33-2.8.69-1.27.92-1.65,1.7-.64,1.83-.78,3.16-.21,3.04-.21,5.1v.7c0,1.99.07,3.64.21,4.96s.4,2.36.78,3.15.93,1.37,1.65,1.76,1.66.64,2.8.76,2.56.18,4.24.18h7.79c1.93,0,3.49-.08,4.68-.24s2.08-.5,2.7-1.02,1.03-1.32,1.24-2.39.32-2.52.32-4.35v-1.04h-12.92v-2.81h16.29v3.85c0,2.29-.19,4.14-.58,5.57s-1.04,2.53-1.96,3.31-2.17,1.31-3.76,1.6-3.59.43-6,.43h-7.79c-2.64,0-4.8-.18-6.5-.54s-3.03-1.02-3.98-1.98-1.62-2.34-2-4.15-.57-4.15-.57-7.05Z"/>
    <path class="cls-1" d="M366.28,148.49v-11.25l-15.19-15.75h4.5l12.38,13.22,12.38-13.22h4.5l-15.19,15.75v11.25h-3.38Z"/>
  </g>
  <g>
    <path class="cls-1" d="M52.28,104.57c-5.89,0-10.97-1.02-15.23-3.07-4.27-2.05-7.62-4.8-10.05-8.26-2.43-3.46-3.82-7.32-4.16-11.58l11.26-.77c.68,4.18,2.54,7.47,5.57,9.86,3.03,2.39,7.23,3.58,12.61,3.58,5.03,0,8.94-.72,11.71-2.18,2.77-1.45,4.16-3.71,4.16-6.78,0-1.96-.47-3.58-1.41-4.86-.94-1.28-2.69-2.37-5.25-3.26-2.56-.9-6.32-1.77-11.26-2.62-6.57-1.19-11.71-2.67-15.42-4.42-3.71-1.75-6.34-3.95-7.87-6.59-1.54-2.64-2.3-5.8-2.3-9.47,0-3.92.98-7.42,2.94-10.5,1.96-3.07,4.86-5.5,8.7-7.3s8.53-2.69,14.08-2.69,10.35,1,14.14,3.01c3.8,2.01,6.8,4.65,9.02,7.94,2.22,3.29,3.67,6.89,4.35,10.82l-11.26.77c-.51-2.39-1.47-4.5-2.88-6.34-1.41-1.83-3.24-3.28-5.5-4.35-2.26-1.07-4.93-1.6-8-1.6-4.95,0-8.62.98-11.01,2.94-2.39,1.96-3.58,4.4-3.58,7.3,0,2.3.55,4.14,1.66,5.5,1.11,1.37,2.9,2.45,5.38,3.26,2.47.81,5.76,1.56,9.86,2.24,7,1.11,12.42,2.54,16.26,4.29,3.84,1.75,6.53,3.9,8.06,6.46,1.54,2.56,2.3,5.72,2.3,9.47,0,4.01-1.17,7.45-3.52,10.3-2.35,2.86-5.55,5.06-9.6,6.59-4.05,1.54-8.64,2.3-13.76,2.3Z"/>
    <path class="cls-1" d="M127.8,104.57c-6.23,0-11.67-1.45-16.32-4.35-4.65-2.9-8.26-7.02-10.82-12.35-2.56-5.33-3.84-11.58-3.84-18.75s1.28-13.52,3.84-18.82c2.56-5.29,6.16-9.39,10.82-12.29,4.65-2.9,10.09-4.35,16.32-4.35s11.67,1.45,16.32,4.35c4.65,2.9,8.26,7,10.82,12.29,2.56,5.29,3.84,11.56,3.84,18.82s-1.28,13.42-3.84,18.75c-2.56,5.33-6.17,9.45-10.82,12.35-4.65,2.9-10.09,4.35-16.32,4.35ZM127.8,94.33c6.23,0,11.07-2.24,14.53-6.72s5.18-10.64,5.18-18.5-1.73-14.02-5.18-18.5-8.3-6.72-14.53-6.72-11.07,2.24-14.53,6.72-5.18,10.65-5.18,18.5,1.73,14.02,5.18,18.5,8.3,6.72,14.53,6.72Z"/>
    <path class="cls-1" d="M176.44,103.03v-9.47h61.44v9.47h-61.44ZM177.72,44.67v-9.47h36.74v9.47h-36.74ZM202.68,24.57v-12.54h11.26v12.54h-11.26ZM203.71,103.03V35.19h10.75v67.84h-10.75Z"/>
    <path class="cls-1" d="M274.62,103.03l-25.22-67.84h11.78l20.22,56.83,20.22-56.83h11.78l-25.22,67.84h-13.57Z"/>
    <path class="cls-1" d="M349.24,104.57c-4.27,0-8.11-.77-11.52-2.3-3.41-1.54-6.1-3.69-8.06-6.46-1.96-2.77-2.94-5.99-2.94-9.66,0-5.8,1.73-10.3,5.18-13.5,3.46-3.2,8.9-5.52,16.32-6.98l22.78-4.61c0-5.8-1.3-10.11-3.9-12.93-2.6-2.82-6.34-4.22-11.2-4.22s-8.36,1.05-11.01,3.14c-2.65,2.09-4.48,5.1-5.5,9.02l-11.39-.9c1.28-6.4,4.33-11.58,9.15-15.55,4.82-3.97,11.07-5.95,18.75-5.95,8.19,0,14.55,2.45,19.07,7.36,4.52,4.91,6.78,11.67,6.78,20.29v28.16c0,1.54.34,2.6,1.02,3.2.68.6,1.71.9,3.07.9h4.35v9.47c-.51.08-1.32.15-2.43.19-1.11.04-2.18.06-3.2.06-2.9,0-5.36-.47-7.36-1.41-2.01-.94-3.52-2.45-4.54-4.54-1.02-2.09-1.58-4.8-1.66-8.13h2.05c-.6,2.9-2.03,5.53-4.29,7.87-2.26,2.35-5.1,4.18-8.51,5.5-3.41,1.32-7.08,1.98-11.01,1.98ZM350.26,95.1c4.61,0,8.45-.79,11.52-2.37,3.07-1.58,5.38-3.8,6.91-6.66,1.54-2.86,2.3-6.16,2.3-9.92v-5.89l-20.74,4.1c-4.61.85-7.81,2.16-9.6,3.9-1.79,1.75-2.69,4.03-2.69,6.85,0,3.16,1.09,5.61,3.26,7.36,2.18,1.75,5.18,2.62,9.02,2.62Z"/>
  </g>
</svg>