<svg width="16" height="16" viewBox="0 0 16 16" fill="none" xmlns="http://www.w3.org/2000/svg">
<g id="icon-16-user">
<path id="Vector" d="M7.99989 9C10.2099 9 11.9999 7.21 11.9999 5C11.9999 2.79 10.2099 1 7.99989 1C5.78989 1 3.99989 2.79 3.99989 5C3.99989 7.21 5.78989 9 7.99989 9ZM7.99989 2C9.64989 2 10.9999 3.35 10.9999 5C10.9999 6.65 9.64989 8 7.99989 8C6.34989 8 4.99989 6.65 4.99989 5C4.99989 3.35 6.34989 2 7.99989 2ZM14.0899 14.16L13.2399 14.69L12.9699 14.27C11.8899 12.54 10.0199 11.5 7.98989 11.5C5.95989 11.5 4.09989 12.53 3.00989 14.27L2.73989 14.69L1.88989 14.16L2.15989 13.74C3.42989 11.71 5.60989 10.51 7.98989 10.51C10.3699 10.51 12.5499 11.72 13.8199 13.74L14.0899 14.16Z" fill="white"/>
</g>
</svg>
