<svg width="16" height="16" viewBox="0 0 16 16" fill="none" xmlns="http://www.w3.org/2000/svg">
<g id="icon-16-globe">
<path id="Vector" d="M8 1C4.14 1 1 4.14 1 8C1 11.86 4.14 15 8 15C11.86 15 15 11.86 15 8C15 4.14 11.86 1 8 1ZM13.19 5H10.72C10.51 3.94 10.2 2.98 9.77 2.27C11.22 2.72 12.44 3.71 13.19 5ZM10 8C10 8.73 9.94 9.39 9.87 10H6.14C6.06 9.39 6.01 8.73 6.01 8C6.01 7.27 6.07 6.61 6.14 6H9.87C9.95 6.61 10 7.27 10 8ZM8 14C7.42 14 6.7 12.89 6.3 11H9.7C9.3 12.89 8.58 14 8 14ZM6.3 5C6.7 3.11 7.42 2 8 2C8.58 2 9.3 3.11 9.7 5H6.3ZM6.23 2.27C5.81 2.98 5.49 3.94 5.28 5H2.81C3.56 3.71 4.77 2.72 6.23 2.27ZM2.35 6H5.12C5.04 6.66 5 7.33 5 8C5 8.67 5.04 9.34 5.12 10H2.35C2.13 9.37 2 8.7 2 8C2 7.3 2.13 6.63 2.35 6ZM2.81 11H5.28C5.49 12.06 5.8 13.02 6.23 13.73C4.78 13.28 3.56 12.29 2.81 11ZM9.77 13.73C10.19 13.02 10.51 12.06 10.72 11H13.19C12.44 12.29 11.23 13.28 9.77 13.73ZM13.65 10H10.88C10.96 9.34 11 8.67 11 8C11 7.33 10.96 6.66 10.88 6H13.65C13.87 6.63 14 7.3 14 8C14 8.7 13.87 9.37 13.65 10Z" fill="white"/>
</g>
</svg>
