<svg width="165" height="85" viewBox="0 0 165 85" fill="none" xmlns="http://www.w3.org/2000/svg">
<path d="M12.4646 3.76688C11.4928 3.01556 10.2515 2.63476 8.73128 2.63476C8.11548 2.63476 7.50929 2.69651 6.92236 2.83031C6.3258 2.9641 5.7966 3.18023 5.34437 3.489C4.88252 3.79776 4.51689 4.20944 4.23786 4.72404C3.95882 5.23864 3.82411 5.87674 3.82411 6.64864C3.82411 7.36909 4.02618 7.95573 4.42067 8.40858C4.82479 8.86143 5.354 9.22165 6.01791 9.50983C6.68182 9.798 7.43232 10.0347 8.27905 10.22C9.11615 10.4052 9.9725 10.6111 10.8481 10.8272C11.7141 11.0433 12.5704 11.3006 13.4171 11.5991C14.2542 11.8976 15.0047 12.299 15.6783 12.8033C16.3422 13.3076 16.881 13.9457 17.2755 14.7073C17.6796 15.4792 17.8721 16.4364 17.8721 17.5994C17.8721 18.8447 17.6123 19.9151 17.0927 20.8002C16.5731 21.6853 15.8996 22.4057 15.0817 22.9718C14.2639 23.5276 13.3498 23.9392 12.3299 24.1862C11.3196 24.4333 10.3093 24.5671 9.30859 24.5671C8.07699 24.5671 6.91273 24.4024 5.82546 24.073C4.72857 23.7437 3.76638 23.2497 2.93889 22.5807C2.11141 21.9117 1.45713 21.0575 0.976036 20.018C0.494942 18.9785 0.254395 17.7434 0.254395 16.3231H3.01587C3.01587 17.3112 3.19869 18.1551 3.5547 18.8653C3.91071 19.5754 4.38218 20.1621 4.96911 20.6252C5.55605 21.0883 6.22959 21.428 7.00896 21.6441C7.78834 21.8603 8.58694 21.9735 9.40481 21.9735C10.0591 21.9735 10.723 21.9117 11.3869 21.7779C12.0508 21.6441 12.6474 21.4177 13.1862 21.1089C13.7154 20.7899 14.1484 20.3576 14.4755 19.8121C14.8027 19.2667 14.9663 18.5668 14.9663 17.7126C14.9663 16.8995 14.7642 16.2408 14.3697 15.7365C13.9656 15.2322 13.4364 14.8205 12.7725 14.5015C12.1086 14.1824 11.3581 13.9251 10.5113 13.7296C9.67423 13.534 8.81788 13.3282 7.94229 13.1223C7.0667 12.9165 6.21996 12.6695 5.37323 12.4019C4.53613 12.124 3.77601 11.7638 3.1121 11.3212C2.44819 10.8684 1.90936 10.292 1.51486 9.58187C1.11074 8.87172 0.918307 7.97632 0.918307 6.90595C0.918307 5.72236 1.13961 4.70345 1.59184 3.83892C2.04407 2.97439 2.64062 2.26424 3.39112 1.69818C4.14163 1.14241 4.98837 0.720442 5.94093 0.452849C6.8935 0.174964 7.87492 0.0411682 8.8756 0.0411682C10.0014 0.0411682 11.0502 0.185257 12.0123 0.473433C12.9745 0.76161 13.8212 1.20417 14.5429 1.82169C15.2742 2.43921 15.8419 3.21111 16.2652 4.13739C16.6886 5.06367 16.9195 6.17521 16.958 7.47201H14.1965C14.0329 5.78412 13.4652 4.55936 12.4934 3.80805L12.4646 3.76688Z" fill="white"/>
<path d="M22.3556 7.66756C22.7982 6.18551 23.4525 4.87842 24.3377 3.736C25.2133 2.59359 26.3102 1.68789 27.6284 1.00862C28.9369 0.329345 30.4668 -0.0102921 32.2084 -0.0102921C33.9499 -0.0102921 35.4702 0.329345 36.7884 1.00862C38.097 1.68789 39.1939 2.59359 40.0791 3.736C40.9547 4.87842 41.6186 6.18551 42.0612 7.66756C42.5038 9.14961 42.7251 10.6831 42.7251 12.2887C42.7251 13.8942 42.5038 15.4277 42.0612 16.9098C41.6186 18.3918 40.9643 19.6989 40.0791 20.8413C39.1939 21.9838 38.1066 22.8792 36.7884 23.5481C35.4798 24.2171 33.9499 24.5465 32.2084 24.5465C30.4668 24.5465 28.9369 24.2171 27.6284 23.5481C26.3198 22.8792 25.2229 21.9735 24.3377 20.8413C23.4525 19.6989 22.7982 18.3918 22.3556 16.9098C21.913 15.4277 21.6917 13.8942 21.6917 12.2887C21.6917 10.6831 21.913 9.14961 22.3556 7.66756ZM25.0401 15.788C25.3287 16.9407 25.781 17.9699 26.3871 18.8962C27.0029 19.8121 27.7919 20.5532 28.7541 21.1089C29.7163 21.6647 30.8613 21.9426 32.1988 21.9426C33.5362 21.9426 34.6812 21.6647 35.6434 21.1089C36.6056 20.5532 37.3946 19.8121 38.0104 18.8962C38.6262 17.9802 39.0784 16.9407 39.3574 15.788C39.6461 14.6353 39.7904 13.4723 39.7904 12.2887C39.7904 11.1051 39.6461 9.94209 39.3574 8.78939C39.0688 7.63668 38.6166 6.60748 38.0104 5.6812C37.3946 4.76521 36.6056 4.02418 35.6434 3.46841C34.6812 2.91264 33.5362 2.63476 32.1988 2.63476C30.8613 2.63476 29.7163 2.91264 28.7541 3.46841C27.7919 4.02418 27.0029 4.76521 26.3871 5.6812C25.7713 6.59719 25.3191 7.63668 25.0401 8.78939C24.7514 9.94209 24.6071 11.1051 24.6071 12.2887C24.6071 13.4723 24.7514 14.6353 25.0401 15.788Z" fill="white"/>
<path d="M50.8461 0.555769V24.0113H47.9307V0.555769H50.8461Z" fill="white"/>
<path d="M62.6039 24.0216L54.8967 0.555769H58.0335L64.2973 20.8928H64.355L70.6863 0.555769H73.7268L65.9234 24.0113H62.6039V24.0216Z" fill="white"/>
<path d="M85.3693 0.555769L93.9424 24.0113H90.719L88.3232 16.951H79.0477L76.5941 24.0113H73.6113L82.1459 0.555769H85.3693ZM87.3995 14.3265L83.7432 3.38607H83.6854L79.9714 14.3265H87.4091H87.3995Z" fill="white"/>
<path d="M15.1199 53.7655C14.6677 54.0537 14.0423 54.1978 13.2437 54.1978C12.5701 54.1978 12.0313 53.9919 11.6272 53.5906C11.2231 53.1892 11.0306 52.5202 11.0306 51.6042C10.309 52.5202 9.4815 53.1892 8.52894 53.5906C7.57637 53.9919 6.54684 54.1978 5.44032 54.1978C4.71868 54.1978 4.04515 54.1052 3.40049 53.9302C2.75582 53.7552 2.19775 53.4773 1.72627 53.1068C1.2548 52.7363 0.879551 52.2423 0.600516 51.6454C0.321482 51.0381 0.186768 50.3177 0.186768 49.4635C0.186768 48.496 0.340728 47.7138 0.648629 47.0963C0.956529 46.4788 1.36064 45.9847 1.86098 45.6039C2.36132 45.2231 2.93862 44.935 3.58329 44.7291C4.22796 44.5336 4.89188 44.3689 5.56541 44.2351C6.27743 44.0807 6.96058 43.9675 7.60525 43.8852C8.24991 43.8131 8.81761 43.6999 9.30832 43.5558C9.79904 43.4117 10.1935 43.2059 10.4726 42.928C10.7612 42.6501 10.9055 42.259 10.9055 41.7239C10.9055 41.1063 10.7997 40.6226 10.5784 40.2418C10.3667 39.8713 10.0877 39.5831 9.75092 39.3876C9.41416 39.192 9.02929 39.0582 8.61555 38.9965C8.19218 38.9347 7.77843 38.8935 7.37432 38.8935C6.2678 38.8935 5.3441 39.12 4.61284 39.5625C3.87195 40.0154 3.47746 40.8593 3.4101 42.1047H0.802567C0.841055 41.0549 1.05274 40.1698 1.41837 39.439C1.784 38.7186 2.27473 38.1319 2.89053 37.6791C3.50633 37.2262 4.20871 36.9072 4.99771 36.7116C5.7867 36.5161 6.63343 36.4132 7.52827 36.4132C8.24029 36.4132 8.95231 36.4646 9.66433 36.5778C10.3667 36.6911 11.0114 36.9072 11.5887 37.2468C12.166 37.5865 12.6182 38.0599 12.9743 38.6774C13.3206 39.2846 13.4938 40.0874 13.4938 41.0755V49.7928C13.4938 50.4515 13.5323 50.9249 13.5997 51.2337C13.667 51.5424 13.9076 51.6968 14.3213 51.6968C14.5426 51.6968 14.812 51.6557 15.1199 51.563V53.7346V53.7655ZM10.8767 45.0585C10.5495 45.3158 10.1166 45.5113 9.58735 45.6348C9.05815 45.7583 8.50007 45.851 7.91314 45.9333C7.3262 46.0053 6.73927 46.098 6.14272 46.1906C5.54616 46.2935 5.01695 46.4479 4.54548 46.664C4.07401 46.8802 3.68913 47.1889 3.39086 47.6006C3.09258 48.002 2.94826 48.5578 2.94826 49.2473C2.94826 49.7002 3.03484 50.0913 3.20804 50.4103C3.38123 50.7294 3.61217 50.9867 3.88158 51.1822C4.16062 51.3778 4.47813 51.5219 4.85339 51.6042C5.21902 51.6865 5.61352 51.738 6.01764 51.738C6.87399 51.738 7.61486 51.6145 8.23066 51.3572C8.84646 51.1102 9.3468 50.7911 9.73167 50.4103C10.1165 50.0295 10.4052 49.6178 10.588 49.165C10.7709 48.7224 10.8671 48.3005 10.8671 47.9094V45.0688L10.8767 45.0585Z" fill="white"/>
<path d="M24.7034 36.8454V39.3052H21.5378V49.8545C21.5378 50.1839 21.5667 50.4412 21.6148 50.647C21.6629 50.8426 21.7591 50.997 21.9035 51.1102C22.0478 51.2234 22.2499 51.2954 22.5 51.3263C22.7598 51.3572 23.087 51.3778 23.5007 51.3778H24.7034V53.8376H22.7021C22.0286 53.8376 21.4512 53.7861 20.9702 53.6935C20.4891 53.5906 20.1042 53.4156 19.8059 53.148C19.5076 52.8804 19.2863 52.5099 19.142 52.0262C18.9977 51.5424 18.9303 50.9043 18.9303 50.1221V39.3155H16.2266V36.8557H18.9303V31.7612H21.5378V36.8557H24.7034V36.8454Z" fill="white"/>
<path d="M30.4188 36.8454V39.3464H30.4766C31.66 37.4218 33.3727 36.4543 35.605 36.4543C36.5865 36.4543 37.4813 36.6705 38.2799 37.113C39.0785 37.5556 39.6462 38.2966 39.9733 39.3464C40.5026 38.4304 41.205 37.71 42.0805 37.2057C42.9465 36.7013 43.9087 36.4543 44.9479 36.4543C45.7465 36.4543 46.4681 36.547 47.1128 36.7322C47.7575 36.9175 48.3155 37.2057 48.7678 37.607C49.2296 37.9981 49.5856 38.5127 49.8454 39.1303C50.1052 39.7581 50.2303 40.5094 50.2303 41.3842V53.8376H47.6227V42.7016C47.6227 42.1767 47.5843 41.6827 47.4977 41.2195C47.4111 40.7564 47.2667 40.355 47.0358 40.0154C46.8145 39.6757 46.497 39.4081 46.1025 39.2126C45.6984 39.017 45.1884 38.9141 44.5534 38.9141C43.264 38.9141 42.2537 39.3052 41.5129 40.0977C40.772 40.8902 40.4063 41.94 40.4063 43.2471V53.8273H37.7988V42.6913C37.7988 42.1458 37.7507 41.6415 37.6641 41.1784C37.5775 40.7152 37.4139 40.3138 37.1926 39.9742C36.9713 39.6346 36.6634 39.367 36.2882 39.1817C35.9129 38.9965 35.4222 38.9038 34.8256 38.9038C34.0655 38.9038 33.4208 39.0685 32.8724 39.3979C32.3336 39.7272 31.891 40.1183 31.5542 40.5814C31.2174 41.0446 30.9673 41.518 30.8133 42.012C30.6594 42.506 30.5824 42.9177 30.5824 43.2471V53.8273H27.9749V36.8351H30.4284L30.4188 36.8454Z" fill="white"/>
<path d="M54.156 41.8576C54.4832 40.777 54.9739 39.8301 55.6282 39.0273C56.2824 38.2246 57.0907 37.5968 58.0529 37.1336C59.015 36.6705 60.1216 36.444 61.3724 36.444C62.6233 36.444 63.749 36.6705 64.7016 37.1336C65.6542 37.5968 66.4528 38.2246 67.1167 39.0273C67.771 39.8301 68.2617 40.7667 68.5888 41.8576C68.916 42.9383 69.0795 44.1116 69.0795 45.3569C69.0795 46.6023 68.916 47.7653 68.5888 48.8356C68.2617 49.906 67.771 50.8426 67.1167 51.6454C66.4624 52.4481 65.6542 53.0657 64.7016 53.5185C63.749 53.9714 62.6425 54.1875 61.3724 54.1875C60.1023 54.1875 59.015 53.9611 58.0529 53.5185C57.0907 53.0657 56.2824 52.4481 55.6282 51.6454C54.9739 50.8426 54.4832 49.906 54.156 48.8356C53.8289 47.7653 53.6653 46.6023 53.6653 45.3569C53.6653 44.1116 53.8289 42.9383 54.156 41.8576ZM56.8116 48.1049C57.0714 48.9077 57.4178 49.5767 57.8701 50.1118C58.3223 50.647 58.8515 51.0587 59.448 51.3469C60.0542 51.6351 60.6893 51.7792 61.3724 51.7792C62.0556 51.7792 62.6906 51.6351 63.2968 51.3469C63.903 51.0587 64.4322 50.647 64.8748 50.1118C65.327 49.5767 65.6734 48.9077 65.9332 48.1049C66.193 47.3021 66.3181 46.3861 66.3181 45.3569C66.3181 44.3277 66.193 43.4117 65.9332 42.609C65.6734 41.8062 65.327 41.1372 64.8748 40.5917C64.4226 40.0462 63.8934 39.6243 63.2968 39.3464C62.6906 39.0582 62.0556 38.9141 61.3724 38.9141C60.6893 38.9141 60.0542 39.0582 59.448 39.3464C58.8419 39.6346 58.3127 40.0462 57.8701 40.5917C57.4178 41.1372 57.0618 41.8165 56.8116 42.609C56.5519 43.4117 56.4268 44.3277 56.4268 45.3569C56.4268 46.3861 56.5519 47.3021 56.8116 48.1049Z" fill="white"/>
<path d="M74.5255 50.0398C74.7757 50.4721 75.0932 50.8117 75.4973 51.0587C75.9015 51.3057 76.3441 51.491 76.8444 51.6042C77.3447 51.7174 77.8643 51.7689 78.3935 51.7689C78.8073 51.7689 79.2306 51.738 79.6829 51.6659C80.1351 51.6042 80.5488 51.4807 80.9241 51.3057C81.2993 51.1308 81.6169 50.8735 81.8574 50.5338C82.1076 50.1942 82.223 49.7619 82.223 49.237C82.223 48.5166 81.9632 47.9711 81.4533 47.5903C80.9433 47.2198 80.2987 46.9213 79.5289 46.6846C78.7592 46.4582 77.922 46.242 77.0272 46.0568C76.1228 45.8715 75.2953 45.6039 74.5255 45.2643C73.7558 44.9247 73.1207 44.4512 72.6012 43.8337C72.0912 43.2162 71.8314 42.362 71.8314 41.271C71.8314 40.4168 72.0142 39.686 72.3702 39.0685C72.7262 38.451 73.1881 37.957 73.7558 37.5762C74.3235 37.1954 74.9585 36.9072 75.6609 36.7219C76.3633 36.5367 77.0657 36.444 77.7681 36.444C78.6726 36.444 79.5 36.5264 80.2602 36.6911C81.0203 36.8557 81.6842 37.1439 82.2711 37.5453C82.8581 37.9467 83.3199 38.5024 83.6663 39.192C84.0127 39.8816 84.2148 40.7461 84.2821 41.7753H81.6746C81.6361 41.2298 81.5014 40.777 81.2705 40.4168C81.0492 40.0565 80.7605 39.7684 80.4141 39.5419C80.0677 39.3258 79.6829 39.1611 79.2595 39.0685C78.8361 38.9656 78.4128 38.9244 77.9894 38.9244C77.6045 38.9244 77.21 38.9553 76.8059 39.0273C76.4018 39.0994 76.0458 39.2126 75.7186 39.3773C75.3915 39.5419 75.1221 39.7581 74.92 40.036C74.718 40.3138 74.6121 40.6638 74.6121 41.1063C74.6121 41.5901 74.7661 41.9914 75.0836 42.3105C75.4011 42.6295 75.8052 42.8868 76.296 43.103C76.7867 43.3088 77.3447 43.4838 77.9509 43.6279C78.5667 43.772 79.1825 43.916 79.7983 44.0704C80.4526 44.2248 81.0973 44.4101 81.7227 44.6262C82.3481 44.8423 82.8966 45.1305 83.3777 45.501C83.8588 45.8612 84.2436 46.3141 84.5419 46.8596C84.8402 47.405 84.9845 48.0843 84.9845 48.8974C84.9845 49.9266 84.7825 50.7808 84.388 51.4601C83.9838 52.1394 83.4643 52.6849 82.8196 53.1068C82.1749 53.5185 81.4437 53.817 80.6354 53.9816C79.8272 54.1463 79.0189 54.2287 78.2203 54.2287C77.3351 54.2287 76.498 54.1257 75.6994 53.9302C74.9008 53.7346 74.1984 53.4053 73.5826 52.9627C72.9668 52.5099 72.4761 51.9232 72.1104 51.1925C71.7448 50.4618 71.5331 49.5664 71.4946 48.5166H74.1022C74.1214 49.1341 74.2561 49.6487 74.5063 50.081L74.5255 50.0398Z" fill="white"/>
<path d="M90.9596 36.8454V39.1406H91.0174C91.4503 38.204 92.1239 37.5144 93.0476 37.0821C93.9713 36.6499 94.9816 36.444 96.0881 36.444C97.3197 36.444 98.3877 36.6808 99.3018 37.1645C100.216 37.6482 100.966 38.2966 101.573 39.12C102.179 39.9433 102.631 40.8902 102.939 41.9606C103.247 43.0309 103.401 44.1733 103.401 45.3775C103.401 46.5817 103.256 47.7241 102.958 48.7945C102.66 49.8648 102.208 50.8014 101.611 51.6042C101.005 52.407 100.245 53.0348 99.3403 53.4979C98.4262 53.9611 97.3678 54.1875 96.1651 54.1875C95.7802 54.1875 95.3376 54.1463 94.8565 54.0537C94.3754 53.9611 93.8943 53.8273 93.4324 53.6317C92.961 53.4362 92.5184 53.1686 92.095 52.8289C91.6716 52.4893 91.3252 52.0673 91.0366 51.563H90.9789V60.3009H88.3713V36.8454H90.9789H90.9596ZM100.341 42.8766C100.149 42.1252 99.8503 41.446 99.4461 40.8593C99.042 40.2727 98.5321 39.7992 97.9066 39.4493C97.2812 39.0994 96.5499 38.9244 95.7128 38.9244C94.8276 38.9244 94.0867 39.1097 93.4709 39.4802C92.8551 39.8507 92.3548 40.3447 91.9699 40.9417C91.585 41.5489 91.2964 42.2282 91.1232 43.0001C90.95 43.772 90.8634 44.5439 90.8634 45.3363C90.8634 46.17 90.9596 46.9728 91.1424 47.755C91.3252 48.5372 91.6139 49.2164 92.018 49.8134C92.4221 50.4 92.9321 50.8837 93.5672 51.244C94.2022 51.6042 94.9719 51.7894 95.8668 51.7894C96.7616 51.7894 97.5218 51.6042 98.1279 51.2337C98.7341 50.8632 99.2152 50.3691 99.5905 49.7516C99.9561 49.1341 100.225 48.4342 100.389 47.6521C100.553 46.8596 100.639 46.0568 100.639 45.2231C100.639 44.4306 100.543 43.6587 100.351 42.9074L100.341 42.8766Z" fill="white"/>
<path d="M109.453 30.3717V39.3464H109.511C109.713 38.8215 110.001 38.3789 110.367 38.0187C110.733 37.6585 111.146 37.36 111.608 37.1336C112.07 36.9072 112.551 36.7322 113.051 36.6293C113.552 36.5161 114.042 36.4646 114.514 36.4646C115.563 36.4646 116.429 36.619 117.121 36.9278C117.814 37.2365 118.382 37.6585 118.815 38.2143C119.248 38.7597 119.546 39.4184 119.719 40.1698C119.893 40.9211 119.979 41.765 119.979 42.681V53.8478H117.372V42.3517C117.372 41.3019 117.083 40.4682 116.515 39.8507C115.938 39.2332 115.149 38.9347 114.148 38.9347C113.35 38.9347 112.657 39.0685 112.07 39.3258C111.483 39.5934 111.002 39.9639 110.607 40.4476C110.223 40.9314 109.924 41.4974 109.732 42.1355C109.539 42.7839 109.443 43.4838 109.443 44.2557V53.8478H106.836V30.3923H109.443L109.453 30.3717Z" fill="white"/>
<path d="M135.528 52.7466C134.345 53.7141 132.844 54.1875 131.045 54.1875C129.774 54.1875 128.678 53.9714 127.744 53.5288C126.811 53.0862 126.032 52.479 125.396 51.6865C124.761 50.894 124.29 49.9575 123.972 48.8562C123.655 47.7653 123.472 46.5714 123.434 45.2746C123.434 43.9778 123.616 42.8045 123.982 41.7239C124.348 40.6535 124.867 39.7169 125.531 38.9347C126.195 38.1422 126.984 37.535 127.898 37.0924C128.812 36.6499 129.803 36.4338 130.891 36.4338C132.305 36.4338 133.479 36.7425 134.412 37.3703C135.346 37.9981 136.086 38.7906 136.654 39.7478C137.222 40.7152 137.607 41.765 137.818 42.8971C138.03 44.0396 138.117 45.1202 138.078 46.1494H126.195C126.176 46.8904 126.253 47.6006 126.445 48.2696C126.628 48.9386 126.926 49.5252 127.34 50.0398C127.754 50.5544 128.273 50.9661 128.908 51.2748C129.544 51.5836 130.294 51.738 131.15 51.738C132.257 51.738 133.161 51.4601 133.873 50.9146C134.576 50.3691 135.047 49.5355 135.269 48.4137H137.847C137.501 50.3177 136.731 51.7586 135.548 52.7157L135.528 52.7466ZM134.903 41.8371C134.672 41.2504 134.354 40.7358 133.95 40.3138C133.546 39.8816 133.084 39.5522 132.536 39.2949C131.997 39.0479 131.391 38.9141 130.737 38.9141C130.082 38.9141 129.447 39.0376 128.908 39.2949C128.37 39.5419 127.898 39.8919 127.513 40.3344C127.128 40.777 126.821 41.2813 126.59 41.8576C126.368 42.434 126.234 43.0618 126.185 43.7102H135.307C135.269 43.0515 135.124 42.4237 134.893 41.8371H134.903Z" fill="white"/>
<path d="M143.514 36.8454V40.4271H143.572C144.207 39.0479 144.987 38.029 145.91 37.3703C146.834 36.7116 147.998 36.4029 149.413 36.4543V39.4081C148.364 39.4081 147.479 39.5625 146.738 39.8713C145.997 40.1801 145.41 40.6226 144.958 41.2195C144.505 41.8062 144.178 42.5266 143.976 43.3706C143.774 44.2145 143.668 45.182 143.668 46.2832V53.8376H141.061V36.8454H143.514Z" fill="white"/>
<path d="M162.441 52.7466C161.257 53.7141 159.756 54.1875 157.957 54.1875C156.687 54.1875 155.59 53.9714 154.657 53.5288C153.723 53.0862 152.944 52.479 152.309 51.6865C151.674 50.894 151.202 49.9575 150.885 48.8562C150.567 47.7653 150.384 46.5714 150.346 45.2746C150.346 43.9778 150.529 42.8045 150.894 41.7239C151.26 40.6535 151.78 39.7169 152.444 38.9347C153.107 38.1422 153.896 37.535 154.81 37.0924C155.725 36.6499 156.716 36.4338 157.803 36.4338C159.217 36.4338 160.391 36.7425 161.325 37.3703C162.258 37.9981 162.999 38.7906 163.566 39.7478C164.134 40.7152 164.519 41.765 164.731 42.8971C164.942 44.0396 165.029 45.1202 164.99 46.1494H153.107C153.088 46.8904 153.165 47.6006 153.358 48.2696C153.54 48.9386 153.839 49.5252 154.252 50.0398C154.666 50.5544 155.186 50.9661 155.821 51.2748C156.456 51.5836 157.206 51.738 158.063 51.738C159.169 51.738 160.074 51.4601 160.786 50.9146C161.488 50.3691 161.96 49.5355 162.181 48.4137H164.76C164.413 50.3177 163.643 51.7586 162.46 52.7157L162.441 52.7466ZM161.815 41.8371C161.584 41.2504 161.267 40.7358 160.863 40.3138C160.459 39.8816 159.997 39.5522 159.448 39.2949C158.909 39.0479 158.303 38.9141 157.649 38.9141C156.995 38.9141 156.36 39.0376 155.821 39.2949C155.282 39.5419 154.81 39.8919 154.426 40.3344C154.041 40.777 153.733 41.2813 153.502 41.8576C153.281 42.434 153.146 43.0618 153.098 43.7102H162.219C162.181 43.0515 162.037 42.4237 161.806 41.8371H161.815Z" fill="white"/>
<path d="M15.1199 83.5815C14.6677 83.8697 14.0423 84.0138 13.2437 84.0138C12.5701 84.0138 12.0313 83.8079 11.6272 83.4065C11.2231 83.0051 11.0306 82.3362 11.0306 81.4202C10.309 82.3362 9.4815 83.0051 8.52894 83.4065C7.57637 83.8079 6.54684 84.0138 5.44032 84.0138C4.71868 84.0138 4.04515 83.9211 3.40049 83.7462C2.75582 83.5712 2.19775 83.2933 1.72627 82.9228C1.2548 82.5523 0.879551 82.0583 0.600516 81.4613C0.321482 80.8541 0.186768 80.1337 0.186768 79.2794C0.186768 78.312 0.340728 77.5298 0.648629 76.9123C0.956529 76.2948 1.36064 75.8007 1.86098 75.4199C2.36132 75.0391 2.93862 74.7509 3.58329 74.5451C4.22796 74.3496 4.89188 74.1849 5.56541 74.0511C6.27743 73.8967 6.96058 73.7835 7.60525 73.7012C8.24991 73.6291 8.81761 73.5159 9.30832 73.3718C9.79904 73.2277 10.1935 73.0219 10.4726 72.744C10.7612 72.4661 10.9055 72.075 10.9055 71.5398C10.9055 70.9223 10.7997 70.4386 10.5784 70.0578C10.3667 69.6873 10.0877 69.3991 9.75092 69.2035C9.41416 69.008 9.02929 68.8742 8.61555 68.8124C8.19218 68.7507 7.77843 68.7095 7.37432 68.7095C6.2678 68.7095 5.3441 68.936 4.61284 69.3785C3.87195 69.8314 3.47746 70.6753 3.4101 71.9206H0.802567C0.841055 70.8709 1.05274 69.9857 1.41837 69.255C1.784 68.5346 2.27473 67.9479 2.89053 67.4951C3.50633 67.0422 4.20871 66.7232 4.99771 66.5276C5.7867 66.3321 6.63343 66.2291 7.52827 66.2291C8.24029 66.2291 8.95231 66.2806 9.66433 66.3938C10.3667 66.507 11.0114 66.7232 11.5887 67.0628C12.166 67.4024 12.6182 67.8759 12.9743 68.4934C13.3206 69.1006 13.4938 69.9034 13.4938 70.8914V79.6088C13.4938 80.2675 13.5323 80.7409 13.5997 81.0497C13.667 81.3584 13.9076 81.5128 14.3213 81.5128C14.5426 81.5128 14.812 81.4716 15.1199 81.379V83.5506V83.5815ZM10.8767 74.8744C10.5495 75.1318 10.1166 75.3273 9.58735 75.4508C9.05815 75.5743 8.50007 75.6669 7.91314 75.7493C7.3262 75.8213 6.73927 75.9139 6.14272 76.0066C5.54616 76.1095 5.01695 76.2639 4.54548 76.48C4.07401 76.6961 3.68913 77.0049 3.39086 77.4166C3.09258 77.818 2.94826 78.3737 2.94826 79.0633C2.94826 79.5162 3.03484 79.9072 3.20804 80.2263C3.38123 80.5454 3.61217 80.8027 3.88158 80.9982C4.16062 81.1937 4.47813 81.3378 4.85339 81.4202C5.21902 81.5025 5.61352 81.554 6.01764 81.554C6.87399 81.554 7.61486 81.4305 8.23066 81.1732C8.84646 80.9262 9.3468 80.6071 9.73167 80.2263C10.1165 79.8455 10.4052 79.4338 10.588 78.981C10.7709 78.5384 10.8671 78.1164 10.8671 77.7253V74.8847L10.8767 74.8744Z" fill="white"/>
<path d="M28.6002 83.6536V80.957H28.5425C27.994 82.0068 27.282 82.7787 26.4257 83.2728C25.5693 83.7668 24.5494 84.0138 23.3851 84.0138C22.3364 84.0138 21.4704 83.8697 20.7776 83.5712C20.0848 83.2727 19.5171 82.8508 19.0842 82.3053C18.6512 81.7598 18.3529 81.1011 18.1797 80.3498C18.0065 79.5985 17.9199 78.7545 17.9199 77.8386V66.6717H20.5274V78.1679C20.5274 79.2177 20.8161 80.0513 21.3838 80.6689C21.9611 81.2864 22.7501 81.5849 23.7508 81.5849C24.5494 81.5849 25.2422 81.4511 25.8291 81.1938C26.4161 80.9262 26.8971 80.5557 27.2916 80.0719C27.6765 79.5882 27.9748 79.0221 28.1672 78.384C28.3597 77.7356 28.4559 77.0358 28.4559 76.2639V66.6717H31.0634V83.6638H28.6098L28.6002 83.6536Z" fill="white"/>
<path d="M42.1478 66.6614V69.1212H38.9822V79.6705C38.9822 79.9999 39.0111 80.2572 39.0592 80.463C39.1073 80.6586 39.2035 80.8129 39.3478 80.9262C39.4922 81.0394 39.6942 81.1114 39.9444 81.1423C40.2042 81.1732 40.5313 81.1937 40.945 81.1937H42.1478V83.6535H40.1464C39.4729 83.6535 38.8956 83.6021 38.4145 83.5095C37.9334 83.4065 37.5485 83.2316 37.2502 82.964C36.952 82.6964 36.7307 82.3259 36.5863 81.8421C36.442 81.3584 36.3746 80.7203 36.3746 79.9381V69.1315H33.6709V66.6717H36.3746V61.5772H38.9822V66.6717H42.1478V66.6614Z" fill="white"/>
<path d="M45.0344 71.6736C45.3616 70.593 45.8523 69.6461 46.5066 68.8433C47.1608 68.0405 47.9691 67.4127 48.9313 66.9496C49.8935 66.4865 51 66.26 52.2508 66.26C53.5017 66.26 54.6274 66.4865 55.58 66.9496C56.5326 67.4127 57.3312 68.0405 57.9951 68.8433C58.6494 69.6461 59.1401 70.5827 59.4673 71.6736C59.7944 72.7543 59.958 73.9276 59.958 75.1729C59.958 76.4183 59.7944 77.5813 59.4673 78.6516C59.1401 79.722 58.6494 80.6586 57.9951 81.4613C57.3408 82.2641 56.5326 82.8816 55.58 83.3345C54.6274 83.7873 53.5209 84.0035 52.2508 84.0035C50.9807 84.0035 49.8935 83.7771 48.9313 83.3345C47.9691 82.8816 47.1608 82.2641 46.5066 81.4613C45.8523 80.6586 45.3616 79.722 45.0344 78.6516C44.7073 77.5813 44.5437 76.4183 44.5437 75.1729C44.5437 73.9276 44.7073 72.7543 45.0344 71.6736ZM47.6901 77.9209C47.9499 78.7237 48.2962 79.3927 48.7485 79.9278C49.2007 80.463 49.7299 80.8747 50.3265 81.1629C50.9326 81.4511 51.5677 81.5951 52.2508 81.5951C52.934 81.5951 53.569 81.4511 54.1752 81.1629C54.7814 80.8747 55.3106 80.463 55.7532 79.9278C56.2054 79.3927 56.5518 78.7237 56.8116 77.9209C57.0714 77.1181 57.1965 76.2021 57.1965 75.1729C57.1965 74.1437 57.0714 73.2277 56.8116 72.425C56.5518 71.6222 56.2054 70.9532 55.7532 70.4077C55.301 69.8622 54.7718 69.4403 54.1752 69.1624C53.569 68.8742 52.934 68.7301 52.2508 68.7301C51.5677 68.7301 50.9326 68.8742 50.3265 69.1624C49.7203 69.4506 49.1911 69.8622 48.7485 70.4077C48.2962 70.9532 47.9402 71.6325 47.6901 72.425C47.4303 73.2277 47.3052 74.1437 47.3052 75.1729C47.3052 76.2021 47.4303 77.1181 47.6901 77.9209Z" fill="white"/>
<path d="M65.8658 66.6614V69.1624H65.9236C67.1071 67.2378 68.8198 66.2703 71.052 66.2703C72.0335 66.2703 72.9283 66.4865 73.7269 66.929C74.5255 67.3716 75.0932 68.1126 75.4204 69.1624C75.9496 68.2464 76.652 67.526 77.5276 67.0216C78.3935 66.5173 79.3557 66.2703 80.3949 66.2703C81.1935 66.2703 81.9151 66.363 82.5598 66.5482C83.2045 66.7335 83.7625 67.0216 84.2148 67.423C84.6766 67.8141 85.0326 68.3287 85.2924 68.9462C85.5522 69.5741 85.6773 70.3254 85.6773 71.2002V83.6535H83.0698V72.5176C83.0698 71.9927 83.0313 71.4987 82.9447 71.0355C82.8581 70.5724 82.7138 70.171 82.4828 69.8314C82.2615 69.4917 81.944 69.2241 81.5495 69.0286C81.1454 68.833 80.6354 68.7301 80.0004 68.7301C78.7111 68.7301 77.7008 69.1212 76.9599 69.9137C76.219 70.7062 75.8534 71.756 75.8534 73.0631V83.6433H73.2458V72.5073C73.2458 71.9618 73.1977 71.4575 73.1111 70.9944C73.0245 70.5312 72.8609 70.1298 72.6396 69.7902C72.4183 69.4506 72.1104 69.183 71.7352 68.9977C71.3599 68.8125 70.8692 68.7198 70.2727 68.7198C69.5125 68.7198 68.8679 68.8845 68.3194 69.2138C67.7806 69.5432 67.338 69.9343 67.0012 70.3974C66.6645 70.8606 66.4143 71.334 66.2603 71.828C66.1064 72.322 66.0294 72.7337 66.0294 73.0631V83.6433H63.4219V66.6511H65.8755L65.8658 66.6614Z" fill="white"/>
<path d="M104.045 83.5815C103.593 83.8697 102.968 84.0138 102.169 84.0138C101.496 84.0138 100.957 83.8079 100.553 83.4065C100.149 83.0051 99.9562 82.3362 99.9562 81.4202C99.2345 82.3362 98.4071 83.0051 97.4545 83.4065C96.5019 83.8079 95.4724 84.0138 94.3659 84.0138C93.6442 84.0138 92.9707 83.9211 92.326 83.7462C91.6814 83.5712 91.1233 83.2933 90.6518 82.9228C90.1803 82.5523 89.8051 82.0583 89.5261 81.4613C89.247 80.8541 89.1123 80.1337 89.1123 79.2794C89.1123 78.312 89.2663 77.5298 89.5742 76.9123C89.8821 76.2948 90.2862 75.8007 90.7865 75.4199C91.2869 75.0391 91.8642 74.7509 92.5088 74.5451C93.1535 74.3496 93.8174 74.1849 94.4909 74.0511C95.203 73.8967 95.8861 73.7835 96.5308 73.7012C97.1754 73.6291 97.7431 73.5159 98.2339 73.3718C98.7246 73.2277 99.1191 73.0219 99.3981 72.744C99.6868 72.4661 99.8311 72.075 99.8311 71.5398C99.8311 70.9223 99.7253 70.4386 99.504 70.0578C99.2923 69.6873 99.0132 69.3991 98.6765 69.2035C98.3397 69.008 97.9548 68.8742 97.5411 68.8124C97.1177 68.7507 96.704 68.7095 96.2999 68.7095C95.1933 68.7095 94.2696 68.936 93.5384 69.3785C92.7975 69.8314 92.403 70.6753 92.3356 71.9206H89.7281C89.7666 70.8709 89.9783 69.9857 90.3439 69.255C90.7096 68.5346 91.2003 67.9479 91.8161 67.4951C92.4319 67.0422 93.1343 66.7232 93.9232 66.5276C94.7122 66.3321 95.559 66.2291 96.4538 66.2291C97.1658 66.2291 97.8778 66.2806 98.5899 66.3938C99.2923 66.507 99.9369 66.7232 100.514 67.0628C101.092 67.4024 101.544 67.8759 101.9 68.4934C102.246 69.1006 102.419 69.9034 102.419 70.8914V79.6088C102.419 80.2675 102.458 80.7409 102.525 81.0497C102.593 81.3584 102.833 81.5128 103.247 81.5128C103.468 81.5128 103.738 81.4716 104.045 81.379V83.5506V83.5815ZM99.8022 74.8744C99.4751 75.1318 99.0421 75.3273 98.5129 75.4508C97.9837 75.5743 97.4256 75.6669 96.8387 75.7493C96.2518 75.8213 95.6648 75.9139 95.0683 76.0066C94.4717 76.1095 93.9425 76.2639 93.471 76.48C92.9996 76.6961 92.6147 77.0049 92.3164 77.4166C92.0181 77.818 91.8738 78.3737 91.8738 79.0633C91.8738 79.5162 91.9604 79.9072 92.1336 80.2263C92.3068 80.5454 92.5377 80.8027 92.8071 80.9982C93.0862 81.1937 93.4037 81.3378 93.7789 81.4202C94.1446 81.5025 94.5391 81.554 94.9432 81.554C95.7995 81.554 96.5404 81.4305 97.1562 81.1732C97.772 80.9262 98.2724 80.6071 98.6572 80.2263C99.0421 79.8455 99.3307 79.4338 99.5136 78.981C99.6964 78.5384 99.7926 78.1164 99.7926 77.7253V74.8847L99.8022 74.8744Z" fill="white"/>
<path d="M113.629 66.6614V69.1212H110.463V79.6705C110.463 79.9999 110.492 80.2572 110.54 80.463C110.588 80.6586 110.684 80.8129 110.829 80.9262C110.973 81.0394 111.175 81.1114 111.425 81.1423C111.685 81.1732 112.012 81.1937 112.426 81.1937H113.629V83.6535H111.627C110.954 83.6535 110.377 83.6021 109.895 83.5095C109.414 83.4065 109.029 83.2316 108.731 82.964C108.433 82.6964 108.212 82.3259 108.067 81.8421C107.923 81.3584 107.856 80.7203 107.856 79.9381V69.1315H105.152V66.6717H107.856V61.5772H110.463V66.6717H113.629V66.6614Z" fill="white"/>
<path d="M117.035 63.6047V60.1877H119.642V63.6047H117.035ZM119.652 66.6614V83.6535H117.045V66.6614H119.652Z" fill="white"/>
<path d="M123.703 71.6736C124.03 70.593 124.521 69.6461 125.175 68.8433C125.829 68.0405 126.638 67.4127 127.6 66.9496C128.562 66.4865 129.668 66.26 130.919 66.26C132.17 66.26 133.296 66.4865 134.248 66.9496C135.201 67.4127 136 68.0405 136.664 68.8433C137.318 69.6461 137.809 70.5827 138.136 71.6736C138.463 72.7543 138.626 73.9276 138.626 75.1729C138.626 76.4183 138.463 77.5813 138.136 78.6516C137.809 79.722 137.318 80.6586 136.664 81.4613C136.009 82.2641 135.201 82.8816 134.248 83.3345C133.296 83.7873 132.189 84.0035 130.919 84.0035C129.649 84.0035 128.562 83.7771 127.6 83.3345C126.638 82.8816 125.829 82.2641 125.175 81.4613C124.521 80.6586 124.03 79.722 123.703 78.6516C123.376 77.5813 123.212 76.4183 123.212 75.1729C123.212 73.9276 123.376 72.7543 123.703 71.6736ZM126.359 77.9209C126.618 78.7237 126.965 79.3927 127.417 79.9278C127.869 80.463 128.398 80.8747 128.995 81.1629C129.601 81.4511 130.236 81.5951 130.919 81.5951C131.602 81.5951 132.238 81.4511 132.844 81.1629C133.45 80.8747 133.979 80.463 134.422 79.9278C134.874 79.3927 135.22 78.7237 135.48 77.9209C135.74 77.1181 135.865 76.2021 135.865 75.1729C135.865 74.1437 135.74 73.2277 135.48 72.425C135.22 71.6222 134.874 70.9532 134.422 70.4077C133.969 69.8622 133.44 69.4403 132.844 69.1624C132.238 68.8742 131.602 68.7301 130.919 68.7301C130.236 68.7301 129.601 68.8742 128.995 69.1624C128.389 69.4506 127.86 69.8622 127.417 70.4077C126.965 70.9532 126.609 71.6325 126.359 72.425C126.099 73.2277 125.974 74.1437 125.974 75.1729C125.974 76.2021 126.099 77.1181 126.359 77.9209Z" fill="white"/>
<path d="M144.534 66.6614V69.3579H144.592C145.679 67.2995 147.402 66.2703 149.749 66.2703C150.798 66.2703 151.664 66.4247 152.357 66.7335C153.05 67.0422 153.617 67.4642 154.05 68.02C154.483 68.5654 154.782 69.2241 154.955 69.9755C155.128 70.7268 155.215 71.5707 155.215 72.4867V83.6535H152.607V72.1574C152.607 71.1076 152.318 70.2739 151.751 69.6564C151.173 69.0389 150.384 68.7404 149.384 68.7404C148.585 68.7404 147.892 68.8742 147.305 69.1315C146.718 69.3991 146.237 69.7696 145.843 70.2533C145.458 70.7371 145.16 71.3031 144.967 71.9412C144.775 72.5896 144.679 73.2895 144.679 74.0614V83.6535H142.071V66.6614H144.525H144.534Z" fill="white"/>
</svg>
