<svg width="132" height="66" viewBox="0 0 132 66" fill="none" xmlns="http://www.w3.org/2000/svg">
<path id="logo-footer" d="M53.5184 33.0082H25.4505L19.4247 20.8557C14.6771 11.281 21.5835 0.016367 32.1987 0.016367H53.5184V33.0082ZM31.4764 45.1607L25.4505 33.0082H0V66H18.7024C29.3176 66 36.2199 54.7354 31.4764 45.1607ZM68.3902 2.95425H69.5548C69.5386 2.43869 69.4412 1.99678 69.2626 1.62852C69.0841 1.26026 68.8447 0.953379 68.5363 0.707874C68.2279 0.462368 67.8749 0.286423 67.4691 0.171854C67.0633 0.0572846 66.621 0 66.1462 0C65.7242 0 65.3103 0.0531928 64.9086 0.16367C64.5069 0.274148 64.1498 0.437818 63.8333 0.658772C63.5168 0.879727 63.2652 1.16206 63.0745 1.50986C62.8838 1.85356 62.7904 2.26274 62.7904 2.7292C62.7904 3.15474 62.8757 3.51073 63.042 3.79306C63.2124 4.07539 63.4356 4.30862 63.7156 4.48456C63.9956 4.6646 64.3121 4.80781 64.6692 4.9142C65.0222 5.02467 65.3834 5.11878 65.7526 5.20062C66.1178 5.28245 66.479 5.36429 66.8361 5.44203C67.1891 5.51978 67.5056 5.62207 67.7896 5.74892C68.0696 5.87576 68.2969 6.03943 68.4632 6.23993C68.6337 6.44042 68.7148 6.70229 68.7148 7.02554C68.7148 7.36516 68.6458 7.6434 68.5079 7.86026C68.3699 8.07712 68.1873 8.24898 67.9641 8.37582C67.741 8.50267 67.4853 8.59268 67.2053 8.64179C66.9253 8.69498 66.6453 8.71953 66.3694 8.71953C66.0245 8.71953 65.6877 8.67452 65.359 8.58859C65.0303 8.50267 64.7422 8.36764 64.4988 8.18351C64.2512 7.99938 64.0524 7.76615 63.9023 7.48382C63.7521 7.20149 63.675 6.86187 63.675 6.47316H62.5104C62.5104 7.03782 62.6119 7.52883 62.8148 7.9421C63.0177 8.35536 63.2936 8.69498 63.6426 8.96094C63.9915 9.22691 64.3973 9.42331 64.8599 9.55425C65.3225 9.68518 65.8135 9.75065 66.3288 9.75065C66.7509 9.75065 67.1769 9.70155 67.603 9.59926C68.0291 9.50105 68.4186 9.33738 68.7635 9.11643C69.1084 8.89547 69.3925 8.60496 69.6116 8.25307C69.8307 7.90118 69.9403 7.47564 69.9403 6.98053C69.9403 6.51816 69.8551 6.13763 69.6887 5.83075C69.5183 5.52796 69.2951 5.27427 69.0151 5.07378C68.7351 4.87328 68.4186 4.7137 68.0615 4.59504C67.7085 4.47638 67.3474 4.37409 66.9781 4.28816C66.6129 4.20223 66.2517 4.1204 65.8947 4.04675C65.5416 3.97309 65.2211 3.87898 64.9411 3.76441C64.6611 3.64984 64.4338 3.50663 64.2675 3.3266C64.0971 3.14656 64.0159 2.91333 64.0159 2.62691C64.0159 2.32412 64.0727 2.06634 64.1904 1.86175C64.3081 1.65716 64.4622 1.49349 64.657 1.37074C64.8518 1.24799 65.075 1.16206 65.3225 1.10887C65.5741 1.05567 65.8297 1.03112 66.0854 1.03112C66.7225 1.03112 67.25 1.18252 67.6598 1.48122C68.0696 1.77991 68.309 2.26683 68.378 2.93788L68.3902 2.95425ZM71.5634 4.88965C71.5634 5.52387 71.6567 6.13763 71.8434 6.72684C72.0301 7.31606 72.306 7.83571 72.6793 8.2899C73.0486 8.74408 73.5112 9.10006 74.0671 9.36603C74.6189 9.63199 75.2641 9.76293 75.9986 9.76293C76.733 9.76293 77.3742 9.63199 77.9301 9.36603C78.482 9.10006 78.9445 8.73999 79.3179 8.2899C79.6871 7.83571 79.9671 7.31606 80.1538 6.72684C80.3404 6.13763 80.4338 5.52796 80.4338 4.88965C80.4338 4.25133 80.3404 3.64166 80.1538 3.05245C79.9671 2.46324 79.6912 1.94358 79.3179 1.4894C78.9445 1.03521 78.486 0.675139 77.9301 0.405084C77.3782 0.135028 76.733 0 75.9986 0C75.2641 0 74.6189 0.135028 74.0671 0.405084C73.5152 0.675139 73.0526 1.03521 72.6793 1.4894C72.306 1.94358 72.0301 2.46324 71.8434 3.05245C71.6567 3.64166 71.5634 4.25133 71.5634 4.88965ZM72.797 4.88965C72.797 4.4191 72.8578 3.95673 72.9796 3.49845C73.1013 3.04017 73.292 2.631 73.5477 2.26274C73.8074 1.89857 74.1401 1.60397 74.5459 1.38301C74.9517 1.16206 75.4345 1.05158 75.9986 1.05158C76.5626 1.05158 77.0455 1.16206 77.4513 1.38301C77.8571 1.60397 78.1898 1.89857 78.4495 2.26274C78.7092 2.62691 78.8999 3.04017 79.0176 3.49845C79.1393 3.95673 79.2002 4.4191 79.2002 4.88965C79.2002 5.3602 79.1393 5.82257 79.0176 6.28084C78.8959 6.73912 78.7051 7.1483 78.4495 7.51655C78.1898 7.88072 77.8571 8.17533 77.4513 8.39628C77.0455 8.61724 76.5626 8.72771 75.9986 8.72771C75.4345 8.72771 74.9517 8.61724 74.5459 8.39628C74.1401 8.17533 73.8074 7.88072 73.5477 7.51655C73.288 7.15239 73.0973 6.73912 72.9796 6.28084C72.8578 5.82257 72.797 5.3602 72.797 4.88965ZM82.629 0.225047V9.55016H83.8586V0.225047H82.629ZM90.2171 9.55425L93.508 0.229138H92.2257L89.5557 8.31445H89.5314L86.8897 0.229138H85.5669L88.8172 9.55425H90.2171ZM97.0586 0.225047L93.4552 9.55016H94.7132L95.7479 6.74321H99.6596L100.67 9.55016H102.029L98.4139 0.225047H97.0545H97.0586ZM96.1375 5.69981L97.7038 1.35028H97.7281L99.2701 5.69981H96.1334H96.1375ZM68.7919 20.5161C68.6621 20.5529 68.5485 20.5693 68.4551 20.5693C68.2806 20.5693 68.1792 20.5079 68.1508 20.3851C68.1224 20.2624 68.1062 20.0741 68.1062 19.8123V16.3466C68.1062 15.9538 68.0331 15.6387 67.887 15.3932C67.741 15.1518 67.5462 14.9595 67.3027 14.8244C67.0592 14.6894 66.7914 14.5994 66.4911 14.5585C66.1949 14.5135 65.8947 14.493 65.5903 14.493C65.2089 14.493 64.8559 14.5339 64.5231 14.6117C64.1904 14.6894 63.8942 14.8203 63.6345 14.9963C63.3748 15.1763 63.1678 15.4095 63.0136 15.696C62.8594 15.9824 62.7701 16.3343 62.7539 16.7557H63.8536C63.8779 16.2606 64.0484 15.921 64.3608 15.7451C64.6733 15.565 65.0587 15.4791 65.5254 15.4791C65.6999 15.4791 65.8744 15.4914 66.0489 15.52C66.2274 15.5446 66.3857 15.5978 66.5277 15.6755C66.6697 15.7533 66.7874 15.8678 66.8766 16.0151C66.9659 16.1624 67.0146 16.3588 67.0146 16.6043C67.0146 16.813 66.9537 16.9726 66.832 17.0831C66.7103 17.1936 66.548 17.2754 66.341 17.3327C66.1341 17.39 65.8947 17.4309 65.6228 17.4636C65.3509 17.4923 65.0628 17.5414 64.7625 17.6027C64.4785 17.6559 64.1985 17.7214 63.9266 17.7991C63.6547 17.8769 63.4113 17.9914 63.2003 18.1469C62.9893 18.2983 62.8188 18.4988 62.689 18.7402C62.5591 18.9857 62.4942 19.2967 62.4942 19.6813C62.4942 20.021 62.551 20.3115 62.6687 20.5488C62.7864 20.7902 62.9446 20.9825 63.1435 21.1298C63.3423 21.2771 63.5777 21.3876 63.8495 21.4572C64.1214 21.5267 64.4095 21.5635 64.7098 21.5635C65.1764 21.5635 65.6106 21.4817 66.0123 21.3221C66.4141 21.1626 66.7671 20.8966 67.0674 20.5324C67.0674 20.8966 67.1526 21.1626 67.3189 21.3221C67.4853 21.4817 67.7126 21.5635 68.0007 21.5635C68.3375 21.5635 68.6012 21.5063 68.7919 21.3917V20.5161ZM67.0024 19.0512C67.0024 19.2067 66.9619 19.3745 66.8848 19.5504C66.8077 19.7263 66.6859 19.8941 66.5236 20.0455C66.3613 20.1969 66.1462 20.3237 65.8906 20.4219C65.6309 20.5201 65.3225 20.5733 64.9573 20.5733C64.7828 20.5733 64.6205 20.557 64.4663 20.5201C64.3121 20.4874 64.1741 20.4301 64.0565 20.3524C63.9388 20.2746 63.8455 20.1723 63.7724 20.0455C63.6994 19.9187 63.6629 19.7673 63.6629 19.5831C63.6629 19.3049 63.7237 19.088 63.8495 18.9285C63.9753 18.7689 64.1376 18.6461 64.3365 18.5561C64.5353 18.4702 64.7585 18.4047 65.0101 18.3679C65.2616 18.327 65.5092 18.2942 65.7567 18.2656C66.0042 18.2369 66.2396 18.196 66.4627 18.1469C66.6859 18.0978 66.8685 18.0242 67.0065 17.9178V19.0471H67.0024V19.0512ZM71.4985 14.6526V12.6272H70.3988V14.6526H69.2586V15.6305H70.3988V19.9268C70.3988 20.2419 70.4272 20.4915 70.4881 20.6838C70.549 20.8761 70.6423 21.0234 70.7681 21.1298C70.8939 21.2362 71.0562 21.3058 71.2591 21.3467C71.462 21.3876 71.7054 21.404 71.9895 21.404H72.8335V20.426H72.3263C72.1518 20.426 72.0138 20.4179 71.9043 20.4056C71.7947 20.3933 71.7135 20.3647 71.6527 20.3197C71.5918 20.2746 71.5512 20.2133 71.5309 20.1355C71.5107 20.0578 71.4985 19.9514 71.4985 19.8205V15.6264H72.8335V14.6485H71.4985V14.6526ZM74.205 14.6526V21.4081H75.3047V17.2017C75.3047 17.0708 75.3372 16.9071 75.4021 16.7107C75.467 16.5143 75.5725 16.3261 75.7145 16.142C75.8566 15.9578 76.0432 15.8024 76.2705 15.6714C76.4977 15.5405 76.7736 15.475 77.0942 15.475C77.3458 15.475 77.5487 15.5118 77.711 15.5855C77.8692 15.6591 77.9991 15.7655 78.0924 15.9006C78.1857 16.0356 78.2547 16.1952 78.2912 16.3793C78.3278 16.5634 78.3481 16.7639 78.3481 16.9808V21.4081H79.4477V17.2017C79.4477 16.678 79.6019 16.2606 79.9144 15.9497C80.2268 15.6346 80.6529 15.4791 81.1966 15.4791C81.4644 15.4791 81.6836 15.52 81.8499 15.5978C82.0204 15.6755 82.1502 15.7819 82.2435 15.9169C82.3369 16.052 82.4018 16.2115 82.4383 16.3957C82.4708 16.5798 82.4911 16.7762 82.4911 16.9849V21.4122H83.5907V16.4611C83.5907 16.1133 83.538 15.8146 83.4284 15.565C83.3189 15.3154 83.1687 15.1149 82.9739 14.9595C82.7792 14.804 82.5479 14.6894 82.276 14.6117C82.0041 14.538 81.6998 14.5012 81.363 14.5012C80.9207 14.5012 80.519 14.5994 80.1538 14.7999C79.7845 15.0004 79.4923 15.2827 79.2651 15.651C79.1272 15.2336 78.8877 14.939 78.5509 14.7631C78.2141 14.5871 77.8368 14.5012 77.4229 14.5012C76.4815 14.5012 75.7592 14.8858 75.2601 15.651H75.2357V14.6567H74.201L74.205 14.6526ZM85.0515 18.0365C85.0515 18.5316 85.1205 18.9939 85.2585 19.4195C85.3965 19.845 85.6034 20.2174 85.8793 20.5365C86.1553 20.8557 86.4961 21.1012 86.9019 21.2812C87.3077 21.4613 87.7743 21.5472 88.3018 21.5472C88.8294 21.5472 89.3041 21.4572 89.7058 21.2812C90.1076 21.1012 90.4444 20.8557 90.7243 20.5365C91.0003 20.2174 91.2072 19.845 91.3452 19.4195C91.4832 18.9939 91.5521 18.5316 91.5521 18.0365C91.5521 17.5414 91.4832 17.0749 91.3452 16.6453C91.2072 16.2156 91.0003 15.8392 90.7243 15.52C90.4484 15.2009 90.1076 14.9513 89.7058 14.7671C89.3041 14.583 88.8375 14.493 88.3018 14.493C87.7662 14.493 87.3077 14.583 86.9019 14.7671C86.4961 14.9513 86.1553 15.2009 85.8793 15.52C85.6034 15.8392 85.3965 16.2115 85.2585 16.6453C85.1205 17.0749 85.0515 17.5414 85.0515 18.0365ZM86.2161 18.0365C86.2161 17.6273 86.2689 17.2631 86.3784 16.944C86.488 16.6248 86.6341 16.3588 86.8248 16.142C87.0155 15.9251 87.2387 15.7573 87.4903 15.6469C87.7459 15.5323 88.0137 15.475 88.3018 15.475C88.5899 15.475 88.8578 15.5323 89.1134 15.6469C89.369 15.7614 89.5922 15.9251 89.7789 16.142C89.9696 16.3588 90.1157 16.6289 90.2252 16.944C90.3348 17.2631 90.3876 17.6273 90.3876 18.0365C90.3876 18.4456 90.3348 18.8098 90.2252 19.129C90.1157 19.4481 89.9696 19.7141 89.7789 19.9268C89.5882 20.1396 89.365 20.3033 89.1134 20.4179C88.8578 20.5324 88.5899 20.5897 88.3018 20.5897C88.0137 20.5897 87.7459 20.5324 87.4903 20.4179C87.2346 20.3033 87.0115 20.1396 86.8248 19.9268C86.6341 19.7141 86.4839 19.4481 86.3784 19.129C86.2689 18.8098 86.2161 18.4456 86.2161 18.0365ZM93.6784 19.2763H92.5788C92.595 19.6936 92.6843 20.0496 92.8385 20.3401C92.9927 20.6306 93.1996 20.8679 93.4593 21.0439C93.719 21.2239 94.0152 21.3508 94.352 21.4285C94.6888 21.5063 95.0419 21.5472 95.4152 21.5472C95.752 21.5472 96.0928 21.5144 96.4337 21.449C96.7745 21.3835 97.0829 21.2689 97.3548 21.1012C97.6267 20.9375 97.8458 20.7166 98.0162 20.4465C98.1867 20.1764 98.2678 19.8368 98.2678 19.4277C98.2678 19.1044 98.2069 18.8343 98.0811 18.6175C97.9554 18.4006 97.793 18.2206 97.5901 18.0774C97.3873 17.9342 97.156 17.8196 96.8922 17.7296C96.6284 17.6436 96.3606 17.57 96.0807 17.5086C95.8209 17.4472 95.5612 17.39 95.3016 17.3327C95.0419 17.2754 94.8106 17.2058 94.6036 17.124C94.3967 17.0422 94.2262 16.9358 94.0923 16.8089C93.9584 16.6821 93.8935 16.5225 93.8935 16.3302C93.8935 16.1542 93.9381 16.0151 94.0233 15.9046C94.1086 15.7942 94.2222 15.7082 94.3601 15.6428C94.4981 15.5773 94.6523 15.5323 94.8187 15.5037C94.985 15.475 95.1514 15.4627 95.3178 15.4627C95.5004 15.4627 95.6789 15.4832 95.8534 15.52C96.032 15.5609 96.1943 15.6223 96.3403 15.7082C96.4864 15.7942 96.6082 15.9087 96.7015 16.056C96.7948 16.1993 96.8516 16.3793 96.8719 16.5962H97.9716C97.9472 16.187 97.858 15.8433 97.7119 15.5691C97.5658 15.295 97.367 15.0781 97.1235 14.9144C96.876 14.7549 96.596 14.6403 96.2754 14.5748C95.9549 14.5094 95.6059 14.4766 95.2244 14.4766C94.9323 14.4766 94.6361 14.5135 94.3358 14.5871C94.0396 14.6608 93.7718 14.7753 93.5323 14.9267C93.2929 15.0781 93.1022 15.2786 92.948 15.52C92.7979 15.7655 92.7208 16.056 92.7208 16.3957C92.7208 16.8294 92.8304 17.169 93.0454 17.4145C93.2605 17.66 93.5323 17.8482 93.857 17.9833C94.1816 18.1183 94.5346 18.2247 94.912 18.2983C95.2934 18.372 95.6424 18.4538 95.967 18.5479C96.2917 18.6379 96.5595 18.7607 96.7786 18.908C96.9937 19.0553 97.1032 19.2722 97.1032 19.5627C97.1032 19.7714 97.0505 19.9432 96.949 20.0782C96.8435 20.2133 96.7137 20.3156 96.5554 20.3851C96.3972 20.4547 96.2186 20.5038 96.032 20.5283C95.8412 20.5529 95.6586 20.5693 95.4882 20.5693C95.265 20.5693 95.0459 20.5488 94.8349 20.5038C94.6239 20.4588 94.4332 20.3892 94.2668 20.2869C94.0964 20.1887 93.9625 20.0537 93.857 19.8818C93.7515 19.71 93.6987 19.5054 93.6865 19.2599L93.6784 19.2763ZM99.6759 14.6526V23.9777H100.776V20.5038H100.8C100.922 20.7043 101.072 20.872 101.246 21.0071C101.425 21.1421 101.611 21.2485 101.81 21.3262C102.009 21.404 102.208 21.4613 102.411 21.494C102.614 21.5267 102.796 21.5472 102.963 21.5472C103.474 21.5472 103.92 21.4572 104.302 21.273C104.687 21.0889 105.004 20.8393 105.259 20.5201C105.515 20.201 105.706 19.8286 105.827 19.4031C105.953 18.9776 106.014 18.5234 106.014 18.0446C106.014 17.5659 105.949 17.1117 105.819 16.6862C105.69 16.2606 105.499 15.8842 105.243 15.5569C104.988 15.2295 104.667 14.9717 104.286 14.7794C103.9 14.5871 103.45 14.493 102.93 14.493C102.464 14.493 102.038 14.5789 101.648 14.7467C101.258 14.9144 100.974 15.1886 100.792 15.565H100.767V14.6526H99.6677H99.6759ZM104.858 17.971C104.858 18.3024 104.821 18.6257 104.752 18.9366C104.683 19.2517 104.57 19.5299 104.415 19.7714C104.261 20.0169 104.054 20.2133 103.799 20.3606C103.543 20.5079 103.226 20.5815 102.845 20.5815C102.464 20.5815 102.143 20.5079 101.875 20.3647C101.607 20.2215 101.388 20.0332 101.222 19.7959C101.051 19.5627 100.93 19.2885 100.853 18.9776C100.776 18.6666 100.735 18.3474 100.735 18.016C100.735 17.6846 100.771 17.394 100.845 17.0872C100.918 16.7844 101.035 16.5102 101.202 16.2688C101.364 16.0274 101.579 15.8351 101.835 15.6878C102.094 15.5405 102.411 15.4668 102.78 15.4668C103.149 15.4668 103.442 15.5364 103.705 15.6755C103.969 15.8146 104.184 16.0029 104.355 16.2361C104.525 16.4693 104.647 16.7394 104.732 17.0381C104.813 17.3368 104.854 17.6436 104.854 17.9587V17.971H104.858ZM107.475 12.0789V21.404H108.575V17.5905C108.575 17.2877 108.615 17.0053 108.696 16.7476C108.778 16.4898 108.903 16.2647 109.066 16.0765C109.228 15.8842 109.435 15.7369 109.682 15.6305C109.93 15.5241 110.218 15.475 110.559 15.475C110.981 15.475 111.314 15.5978 111.557 15.8392C111.801 16.0847 111.918 16.412 111.918 16.8335V21.404H113.018V16.9644C113.018 16.6002 112.981 16.2647 112.908 15.966C112.835 15.6673 112.71 15.4055 112.527 15.1886C112.344 14.9717 112.109 14.7999 111.813 14.6771C111.521 14.5544 111.151 14.493 110.713 14.493C110.514 14.493 110.307 14.5135 110.096 14.5585C109.885 14.6035 109.682 14.6689 109.488 14.759C109.293 14.849 109.118 14.9676 108.964 15.1108C108.81 15.2541 108.688 15.43 108.603 15.6387H108.579V12.0707H107.479V12.0789H107.475ZM120.545 19.264H119.458C119.364 19.71 119.165 20.0373 118.869 20.2583C118.573 20.4751 118.188 20.5856 117.721 20.5856C117.36 20.5856 117.043 20.5242 116.775 20.4015C116.508 20.2787 116.289 20.1151 116.114 19.9105C115.94 19.7059 115.818 19.4727 115.737 19.2067C115.66 18.9407 115.623 18.6584 115.631 18.3638H120.643C120.659 17.9546 120.622 17.525 120.533 17.0708C120.444 16.6166 120.277 16.1993 120.042 15.8187C119.803 15.4341 119.49 15.119 119.097 14.8735C118.703 14.6239 118.208 14.5012 117.611 14.5012C117.153 14.5012 116.731 14.5871 116.349 14.7631C115.964 14.939 115.631 15.1804 115.351 15.4955C115.071 15.8105 114.852 16.1788 114.698 16.6043C114.544 17.0299 114.467 17.5004 114.467 18.016C114.483 18.5316 114.56 19.0062 114.694 19.4399C114.828 19.8737 115.027 20.2501 115.294 20.5652C115.562 20.8802 115.891 21.1216 116.284 21.2976C116.678 21.4735 117.141 21.5595 117.676 21.5595C118.435 21.5595 119.068 21.3671 119.567 20.9866C120.066 20.602 120.391 20.0332 120.537 19.2763L120.545 19.264ZM119.482 17.3818H115.635C115.651 17.1199 115.708 16.8744 115.806 16.6453C115.899 16.4161 116.029 16.2115 116.195 16.0397C116.357 15.8637 116.556 15.7287 116.784 15.6264C117.011 15.5282 117.271 15.475 117.555 15.475C117.839 15.475 118.082 15.5241 118.313 15.6264C118.541 15.7246 118.739 15.8596 118.91 16.0315C119.08 16.1993 119.21 16.4038 119.312 16.6371C119.409 16.8703 119.47 17.1199 119.486 17.3818H119.482ZM121.905 14.6526V21.4081H123.004V18.4047C123.004 17.971 123.049 17.5823 123.134 17.2467C123.219 16.9112 123.357 16.6248 123.548 16.3916C123.739 16.1583 123.99 15.9783 124.299 15.8555C124.611 15.7328 124.984 15.6714 125.427 15.6714V14.4971C124.83 14.4807 124.339 14.6035 123.95 14.8613C123.56 15.119 123.231 15.5282 122.964 16.0765H122.939V14.6526H121.905ZM131.895 19.264H130.807C130.714 19.71 130.515 20.0373 130.219 20.2583C129.923 20.4751 129.537 20.5856 129.071 20.5856C128.709 20.5856 128.393 20.5242 128.125 20.4015C127.857 20.2787 127.638 20.1151 127.464 19.9105C127.289 19.7059 127.167 19.4727 127.086 19.2067C127.009 18.9407 126.973 18.6584 126.981 18.3638H131.996C132.012 17.9546 131.976 17.525 131.887 17.0708C131.797 16.6166 131.631 16.1993 131.396 15.8187C131.156 15.4341 130.844 15.119 130.45 14.8735C130.057 14.6239 129.562 14.5012 128.965 14.5012C128.507 14.5012 128.085 14.5871 127.703 14.7631C127.318 14.939 126.985 15.1804 126.705 15.4955C126.425 15.8105 126.206 16.1788 126.052 16.6043C125.897 17.0299 125.82 17.5004 125.82 18.016C125.837 18.5316 125.914 19.0062 126.048 19.4399C126.181 19.8737 126.38 20.2501 126.648 20.5652C126.916 20.8802 127.245 21.1216 127.638 21.2976C128.032 21.4735 128.494 21.5595 129.03 21.5595C129.789 21.5595 130.422 21.3671 130.921 20.9866C131.42 20.602 131.745 20.0332 131.891 19.2763V19.264H131.895ZM130.832 17.3818H126.985C127.001 17.1199 127.058 16.8744 127.155 16.6453C127.249 16.4161 127.378 16.2115 127.545 16.0397C127.707 15.8637 127.906 15.7287 128.133 15.6264C128.36 15.5282 128.62 15.475 128.904 15.475C129.188 15.475 129.432 15.5241 129.663 15.6264C129.89 15.7246 130.089 15.8596 130.26 16.0315C130.43 16.1993 130.56 16.4038 130.661 16.6371C130.759 16.8703 130.819 17.1199 130.836 17.3818H130.832ZM68.7919 32.3699C68.6621 32.4067 68.5485 32.4231 68.4551 32.4231C68.2806 32.4231 68.1792 32.3617 68.1508 32.2389C68.1224 32.1162 68.1062 31.928 68.1062 31.6661V28.2004C68.1062 27.8076 68.0331 27.4925 67.887 27.247C67.741 27.0056 67.5462 26.8133 67.3027 26.6782C67.0592 26.5432 66.7914 26.4532 66.4911 26.4123C66.1949 26.3673 65.8947 26.3468 65.5903 26.3468C65.2089 26.3468 64.8559 26.3877 64.5231 26.4655C64.1904 26.5432 63.8942 26.6741 63.6345 26.8501C63.3748 27.0301 63.1678 27.2634 63.0136 27.5498C62.8594 27.8362 62.7701 28.1881 62.7539 28.6095H63.8536C63.8779 28.1144 64.0484 27.7748 64.3608 27.5989C64.6733 27.4188 65.0587 27.3329 65.5254 27.3329C65.6999 27.3329 65.8744 27.3452 66.0489 27.3738C66.2274 27.3984 66.3857 27.4516 66.5277 27.5293C66.6697 27.6071 66.7874 27.7216 66.8766 27.8689C66.9659 28.0162 67.0146 28.2126 67.0146 28.4582C67.0146 28.6668 66.9537 28.8264 66.832 28.9369C66.7103 29.0474 66.548 29.1292 66.341 29.1865C66.1341 29.2438 65.8947 29.2847 65.6228 29.3174C65.3509 29.3461 65.0628 29.3952 64.7625 29.4565C64.4785 29.5097 64.1985 29.5752 63.9266 29.6529C63.6547 29.7307 63.4113 29.8453 63.2003 30.0007C62.9893 30.1521 62.8188 30.3526 62.689 30.594C62.5591 30.8396 62.4942 31.1505 62.4942 31.5352C62.4942 31.8748 62.551 32.1653 62.6687 32.4026C62.7864 32.644 62.9446 32.8363 63.1435 32.9836C63.3423 33.1309 63.5777 33.2414 63.8495 33.311C64.1214 33.3805 64.4095 33.4174 64.7098 33.4174C65.1764 33.4174 65.6106 33.3355 66.0123 33.1759C66.4141 33.0164 66.7671 32.7504 67.0674 32.3862C67.0674 32.7504 67.1526 33.0164 67.3189 33.1759C67.4853 33.3355 67.7126 33.4174 68.0007 33.4174C68.3375 33.4174 68.6012 33.3601 68.7919 33.2455V32.3699ZM67.0024 30.9009C67.0024 31.0564 66.9619 31.2242 66.8848 31.4001C66.8077 31.5761 66.6859 31.7438 66.5236 31.8952C66.3613 32.0466 66.1462 32.1735 65.8906 32.2717C65.6309 32.3699 65.3225 32.4231 64.9573 32.4231C64.7828 32.4231 64.6205 32.4067 64.4663 32.3699C64.3121 32.3371 64.1741 32.2799 64.0565 32.2021C63.9388 32.1244 63.8455 32.0221 63.7724 31.8952C63.6994 31.7684 63.6629 31.617 63.6629 31.4329C63.6629 31.1546 63.7237 30.9378 63.8495 30.7782C63.9753 30.6186 64.1376 30.4958 64.3365 30.4058C64.5353 30.3199 64.7585 30.2544 65.0101 30.2176C65.2616 30.1767 65.5092 30.144 65.7567 30.1153C66.0042 30.0867 66.2396 30.0458 66.4627 29.9967C66.6859 29.9475 66.8685 29.8739 67.0065 29.7675V30.8968H67.0024V30.9009ZM75.5157 33.2578V26.5023H74.416V30.3158C74.416 30.6227 74.3755 30.9009 74.2943 31.1587C74.2132 31.4165 74.0874 31.6415 73.925 31.8298C73.7627 32.0221 73.5558 32.1694 73.3083 32.2758C73.0607 32.3821 72.7726 32.4312 72.4318 32.4312C72.0098 32.4312 71.677 32.3085 71.4336 32.0671C71.1901 31.8216 71.0724 31.4942 71.0724 31.0728V26.5023H69.9727V30.9418C69.9727 31.306 70.0093 31.6415 70.0823 31.9402C70.1553 32.2389 70.2811 32.5008 70.4637 32.7177C70.6463 32.9345 70.8817 33.1023 71.1779 33.221C71.4701 33.3396 71.8393 33.3969 72.2776 33.3969C72.7686 33.3969 73.1987 33.2987 73.5598 33.1023C73.921 32.9059 74.2213 32.599 74.4526 32.1817H74.4769V33.2537H75.5157V33.2578ZM78.8593 26.5064V24.481H77.7597V26.5064H76.6194V27.4843H77.7597V31.7807C77.7597 32.0957 77.7881 32.3453 77.8489 32.5376C77.9098 32.7299 78.0031 32.8772 78.1289 32.9836C78.2547 33.09 78.417 33.1596 78.6199 33.2005C78.8228 33.2414 79.0663 33.2578 79.3503 33.2578H80.1944V32.2799H79.6871C79.5126 32.2799 79.3747 32.2717 79.2651 32.2594C79.1556 32.2471 79.0744 32.2185 79.0135 32.1735C78.9527 32.1285 78.9121 32.0671 78.8918 31.9893C78.8715 31.9116 78.8593 31.8052 78.8593 31.6743V27.4802H80.1944V26.5023H78.8593V26.5064ZM81.2007 29.8903C81.2007 30.3854 81.2697 30.8477 81.4076 31.2733C81.5456 31.6988 81.7525 32.0712 82.0285 32.3903C82.3044 32.7095 82.6453 32.955 83.051 33.135C83.4568 33.3151 83.9235 33.401 84.451 33.401C84.9785 33.401 85.4533 33.311 85.855 33.135C86.2567 32.955 86.5935 32.7095 86.8735 32.3903C87.1494 32.0712 87.3564 31.6988 87.4943 31.2733C87.6323 30.8477 87.7013 30.3854 87.7013 29.8903C87.7013 29.3952 87.6323 28.9287 87.4943 28.4991C87.3564 28.0694 87.1494 27.693 86.8735 27.3738C86.5976 27.0547 86.2567 26.8051 85.855 26.621C85.4533 26.4368 84.9866 26.3468 84.451 26.3468C83.9154 26.3468 83.4568 26.4368 83.051 26.621C82.6453 26.8051 82.3044 27.0547 82.0285 27.3738C81.7525 27.693 81.5456 28.0653 81.4076 28.4991C81.2697 28.9287 81.2007 29.3952 81.2007 29.8903ZM82.3693 29.8903C82.3693 29.4811 82.4221 29.1169 82.5316 28.7978C82.6412 28.4786 82.7873 28.2126 82.978 27.9958C83.1687 27.7789 83.3919 27.6112 83.6435 27.5007C83.8991 27.3861 84.1669 27.3288 84.455 27.3288C84.7431 27.3288 85.011 27.3861 85.2666 27.5007C85.5222 27.6153 85.7454 27.7789 85.9321 27.9958C86.1228 28.2126 86.2689 28.4827 86.3784 28.7978C86.488 29.1169 86.5408 29.4811 86.5408 29.8903C86.5408 30.2994 86.488 30.6636 86.3784 30.9828C86.2689 31.3019 86.1228 31.5679 85.9321 31.7807C85.7414 31.9934 85.5182 32.1571 85.2666 32.2717C85.011 32.3862 84.7431 32.4435 84.455 32.4435C84.1669 32.4435 83.8991 32.3862 83.6435 32.2717C83.3878 32.1571 83.1647 31.9934 82.978 31.7807C82.7873 31.5679 82.6371 31.3019 82.5316 30.9828C82.4221 30.6636 82.3693 30.2994 82.3693 29.8903ZM89.158 26.5064V33.2619H90.2577V29.0555C90.2577 28.9246 90.2902 28.7609 90.3551 28.5645C90.42 28.3681 90.5255 28.1799 90.6675 27.9958C90.8096 27.8117 90.9962 27.6562 91.2235 27.5252C91.4507 27.3943 91.7266 27.3288 92.0472 27.3288C92.2988 27.3288 92.5017 27.3657 92.664 27.4393C92.8222 27.513 92.9521 27.6193 93.0454 27.7544C93.1387 27.8894 93.2077 28.049 93.2442 28.2331C93.2808 28.4172 93.301 28.6177 93.301 28.8346V33.2619H94.4007V29.0555C94.4007 28.5318 94.5549 28.1144 94.8674 27.8035C95.1798 27.4884 95.6059 27.3329 96.1496 27.3329C96.4174 27.3329 96.6366 27.3738 96.8029 27.4516C96.9734 27.5293 97.1032 27.6357 97.1965 27.7707C97.2899 27.9058 97.3548 28.0653 97.3913 28.2495C97.4238 28.4336 97.4441 28.63 97.4441 28.8387V33.266H98.5437V28.3149C98.5437 27.9671 98.491 27.6684 98.3814 27.4188C98.2719 27.1693 98.1217 26.9688 97.9269 26.8133C97.7322 26.6578 97.5009 26.5432 97.229 26.4655C96.9571 26.3918 96.6528 26.355 96.316 26.355C95.8737 26.355 95.472 26.4532 95.1068 26.6537C94.7375 26.8542 94.4454 27.1365 94.2181 27.5048C94.0802 27.0874 93.8407 26.7928 93.5039 26.6169C93.1671 26.4409 92.7898 26.355 92.3759 26.355C91.4345 26.355 90.7122 26.7396 90.2131 27.5048H90.1887V26.5105H89.154L89.158 26.5064ZM106.294 32.3699C106.164 32.4067 106.051 32.4231 105.957 32.4231C105.783 32.4231 105.681 32.3617 105.653 32.2389C105.625 32.1162 105.608 31.928 105.608 31.6661V28.2004C105.608 27.8076 105.535 27.4925 105.389 27.247C105.243 27.0056 105.048 26.8133 104.805 26.6782C104.561 26.5432 104.294 26.4532 103.993 26.4123C103.697 26.3673 103.397 26.3468 103.093 26.3468C102.711 26.3468 102.358 26.3877 102.025 26.4655C101.693 26.5432 101.396 26.6741 101.137 26.8501C100.877 27.0301 100.67 27.2634 100.516 27.5498C100.362 27.8362 100.272 28.1881 100.256 28.6095H101.356C101.38 28.1144 101.551 27.7748 101.863 27.5989C102.175 27.4188 102.561 27.3329 103.028 27.3329C103.202 27.3329 103.377 27.3452 103.551 27.3738C103.73 27.3984 103.888 27.4516 104.03 27.5293C104.172 27.6071 104.29 27.7216 104.379 27.8689C104.468 28.0162 104.517 28.2126 104.517 28.4582C104.517 28.6668 104.456 28.8264 104.334 28.9369C104.212 29.0474 104.05 29.1292 103.843 29.1865C103.636 29.2438 103.397 29.2847 103.125 29.3174C102.853 29.3461 102.565 29.3952 102.265 29.4565C101.981 29.5097 101.701 29.5752 101.429 29.6529C101.157 29.7307 100.913 29.8453 100.702 30.0007C100.491 30.1521 100.321 30.3526 100.191 30.594C100.061 30.8396 99.9964 31.1505 99.9964 31.5352C99.9964 31.8748 100.053 32.1653 100.171 32.4026C100.289 32.644 100.447 32.8363 100.646 32.9836C100.845 33.1309 101.08 33.2414 101.352 33.311C101.624 33.3805 101.912 33.4174 102.212 33.4174C102.679 33.4174 103.113 33.3355 103.515 33.1759C103.916 33.0164 104.269 32.7504 104.57 32.3862C104.57 32.7504 104.655 33.0164 104.821 33.1759C104.988 33.3355 105.215 33.4174 105.503 33.4174C105.84 33.4174 106.103 33.3601 106.294 33.2455V32.3699ZM104.509 30.9009C104.509 31.0564 104.468 31.2242 104.391 31.4001C104.314 31.5761 104.192 31.7438 104.03 31.8952C103.868 32.0466 103.653 32.1735 103.397 32.2717C103.137 32.3699 102.829 32.4231 102.464 32.4231C102.289 32.4231 102.127 32.4067 101.973 32.3699C101.818 32.3371 101.68 32.2799 101.563 32.2021C101.445 32.1244 101.352 32.0221 101.279 31.8952C101.206 31.7684 101.169 31.617 101.169 31.4329C101.169 31.1546 101.23 30.9378 101.356 30.7782C101.482 30.6186 101.644 30.4958 101.843 30.4058C102.042 30.3199 102.265 30.2544 102.516 30.2176C102.768 30.1767 103.015 30.144 103.263 30.1153C103.51 30.0867 103.746 30.0458 103.969 29.9967C104.192 29.9475 104.375 29.8739 104.513 29.7675V30.8968L104.509 30.9009ZM109.005 26.5064V24.481H107.905V26.5064H106.765V27.4843H107.905V31.7807C107.905 32.0957 107.933 32.3453 107.994 32.5376C108.055 32.7299 108.149 32.8772 108.274 32.9836C108.4 33.09 108.562 33.1596 108.765 33.2005C108.968 33.2414 109.212 33.2578 109.496 33.2578H110.34V32.2799H109.833C109.658 32.2799 109.52 32.2717 109.411 32.2594C109.301 32.2471 109.22 32.2185 109.159 32.1735C109.098 32.1285 109.057 32.0671 109.037 31.9893C109.017 31.9116 109.005 31.8052 109.005 31.6743V27.4802H110.34V26.5023H109.005V26.5064ZM112.876 25.2911V23.9327H111.776V25.2911H112.876ZM111.776 26.5064V33.2619H112.876V26.5064H111.776ZM114.377 29.8903C114.377 30.3854 114.446 30.8477 114.584 31.2733C114.722 31.6988 114.929 32.0712 115.205 32.3903C115.481 32.7095 115.822 32.955 116.228 33.135C116.633 33.3151 117.1 33.401 117.628 33.401C118.155 33.401 118.63 33.311 119.032 33.135C119.433 32.955 119.77 32.7095 120.05 32.3903C120.326 32.0712 120.533 31.6988 120.671 31.2733C120.809 30.8477 120.878 30.3854 120.878 29.8903C120.878 29.3952 120.809 28.9287 120.671 28.4991C120.533 28.0694 120.326 27.693 120.05 27.3738C119.774 27.0547 119.433 26.8051 119.032 26.621C118.63 26.4368 118.163 26.3468 117.628 26.3468C117.092 26.3468 116.633 26.4368 116.228 26.621C115.822 26.8051 115.481 27.0547 115.205 27.3738C114.929 27.693 114.722 28.0653 114.584 28.4991C114.446 28.9287 114.377 29.3952 114.377 29.8903ZM115.546 29.8903C115.546 29.4811 115.599 29.1169 115.708 28.7978C115.818 28.4786 115.964 28.2126 116.155 27.9958C116.345 27.7789 116.568 27.6112 116.82 27.5007C117.076 27.3861 117.344 27.3288 117.632 27.3288C117.92 27.3288 118.188 27.3861 118.443 27.5007C118.699 27.6153 118.922 27.7789 119.109 27.9958C119.299 28.2126 119.445 28.4827 119.555 28.7978C119.665 29.1169 119.717 29.4811 119.717 29.8903C119.717 30.2994 119.665 30.6636 119.555 30.9828C119.445 31.3019 119.299 31.5679 119.109 31.7807C118.918 31.9934 118.695 32.1571 118.443 32.2717C118.188 32.3862 117.92 32.4435 117.632 32.4435C117.344 32.4435 117.076 32.3862 116.82 32.2717C116.564 32.1571 116.341 31.9934 116.155 31.7807C115.964 31.5679 115.814 31.3019 115.708 30.9828C115.599 30.6636 115.546 30.2994 115.546 29.8903ZM122.335 26.5064V33.2619H123.434V29.4484C123.434 29.1456 123.475 28.8632 123.556 28.6055C123.637 28.3477 123.763 28.1226 123.925 27.9344C124.088 27.7421 124.295 27.5948 124.542 27.4884C124.79 27.382 125.078 27.3329 125.419 27.3329C125.841 27.3329 126.173 27.4557 126.417 27.6971C126.66 27.9426 126.778 28.2699 126.778 28.6914V33.2619H127.878V28.8223C127.878 28.4582 127.841 28.1226 127.768 27.8239C127.695 27.5252 127.569 27.2634 127.387 27.0465C127.204 26.8296 126.969 26.6578 126.672 26.535C126.38 26.4123 126.011 26.3509 125.573 26.3509C124.579 26.3509 123.852 26.7601 123.398 27.5784H123.373V26.5064H122.335Z" fill="white"/>
</svg>
