<svg width="83" height="31" viewBox="0 0 83 31" fill="none" xmlns="http://www.w3.org/2000/svg">
<path id="DJonline logo" d="M21.2147 7.4029L29.7093 7.18722V24.183C29.5633 27.5311 28.6209 29.5751 25.0638 30.5175C21.8319 31.3736 17.9927 30.9522 14.7509 30.3217V26.2967H17.8335C17.7671 27.5211 18.0989 28.802 19.393 29.2964C20.4316 29.6946 22.1372 29.5983 23.1691 29.2035C25.1601 28.4436 25.5947 26.3498 25.6512 24.4983L17.9828 24.6443L17.8335 21.8404C16.0051 23.7649 13.7322 24.6974 11.0312 24.9296C5.15463 25.434 0.353196 23.0449 0.0180574 16.9925C-0.237444 12.3802 2.22466 9.0786 7.00951 8.2225C10.4969 7.59868 14.7509 7.95041 17.213 10.6116C17.2594 10.6614 17.2097 10.7476 17.3855 10.7045V3.91548C17.3855 3.69979 17.2163 2.94656 17.1234 2.73088C16.9276 2.28292 16.6024 2.08051 16.1246 1.96106C15.0528 1.69228 13.7587 1.74869 12.6504 1.72546V0.288683L18.4042 0.219001L21.218 0V7.4029H21.2147ZM17.6012 15.2803C17.0902 11.1292 13.9379 9.4436 9.77688 9.79533C6.42882 10.0774 4.60381 12.4001 4.38149 15.486C4.00653 20.6923 6.61464 23.2938 12.0864 22.9221C16.5427 22.6202 18.0757 19.1394 17.6012 15.2803ZM21.2147 8.83637V21.3725C21.2147 21.6313 21.583 22.3448 21.8153 22.5239C22.5619 23.1079 24.7718 22.9487 25.7275 22.9885V10.7443C25.7275 10.668 25.5947 10.157 25.5549 10.0442C25.2165 9.06532 24.3869 9.01223 23.4313 8.90937C22.7212 8.83637 21.9314 8.84964 21.2147 8.83637ZM82.6313 16.9593H75.7162C75.7062 18.2733 75.9982 19.9324 77.4814 20.4102C78.5333 20.7487 79.9369 20.5828 80.5906 19.6404C80.803 19.3351 80.8295 18.9867 81.0186 18.6815H82.4853C82.2563 20.6392 80.564 21.3725 78.6926 21.4853H35.3834C29.2647 21.346 29.039 12.5162 35.3834 12.211C40.1849 11.9787 41.8373 16.0203 39.8597 19.7234L38.8808 20.689C39.6871 20.6392 40.5233 20.6691 41.3263 20.6193C42.1293 20.5695 42.428 20.5861 42.5441 19.7698C42.7034 18.6616 42.6503 16.2061 42.5673 15.0447C42.5474 14.7925 42.4811 14.1621 42.3052 14.0028C41.9966 13.7174 40.968 13.7373 40.5333 13.7174V12.8547L44.0672 12.7817L44.18 14.2185C45.2418 12.4764 49.0345 12.0052 50.3386 13.5781C51.4336 14.8987 50.8429 17.9647 50.9823 19.6471C51.0752 20.7653 51.6924 20.7885 52.7509 20.6857C53.4643 20.616 53.6335 20.3837 53.6933 19.7201C53.9654 16.674 53.4909 13.2529 53.6833 10.167C53.6169 9.08191 52.4622 9.41373 51.6625 9.2611V8.47136L55.495 8.32868V8.33532L55.4917 19.8661C55.4917 19.9026 55.6178 20.3041 55.651 20.3605C55.8866 20.7686 57.1176 20.7255 57.5623 20.6956C58.2392 20.6458 58.5544 20.5529 58.6407 19.8594C58.7568 18.9237 58.79 15.2969 58.6175 14.4375C58.6009 14.3612 58.4748 14.0426 58.4317 13.9895C58.2127 13.7274 56.9882 13.7108 56.6232 13.7241V12.8613L60.4558 12.7883V19.7931C60.4558 19.8627 60.6217 20.3737 60.6781 20.4434C60.9933 20.8151 62.8316 20.7387 63.2994 20.5728C63.6578 20.4467 63.6611 20.2112 63.691 19.8694C63.8436 18.1107 63.5848 16.1331 63.6711 14.3512C63.5848 13.5714 62.3471 13.7938 61.7333 13.7241L61.7432 12.9808L61.9191 12.8613L65.3401 12.7883V14.0459L65.4895 14.1189C66.4517 12.9941 67.8587 12.5395 69.3651 12.6423C73.4465 12.9244 71.95 17.3509 72.2553 19.9391C72.2851 20.1747 72.3847 20.4998 72.6701 20.5496L75.4872 20.6956C73.858 19.4778 73.5228 16.9958 74.0405 15.1808C74.6543 13.0372 76.6751 12.0749 78.9083 12.2176C81.7785 12.4034 82.8802 14.4076 82.6313 16.9593ZM37.8024 19.8793C38.9405 18.7611 38.9206 15.5989 38.1707 14.2981C37.2914 12.7718 34.524 12.6855 33.4854 14.0625C32.5431 15.3102 32.5397 18.6284 33.6248 19.7964C34.5605 20.8051 36.8235 20.8416 37.8057 19.8793H37.8024ZM48.9582 14.8357C48.5733 13.7971 47.4119 13.6079 46.38 13.744C45.3911 13.8734 44.764 14.5802 44.4819 15.4495C44.1999 16.3189 44.2098 18.6616 44.2928 19.657C44.3724 20.6492 44.618 20.606 45.5371 20.6956C45.8689 20.7288 46.4961 20.7752 46.8146 20.7752C47.2228 20.7752 48.3609 20.6956 48.7193 20.5762C49.1042 20.4501 49.154 20.0751 49.1838 19.7267C49.2767 18.6914 49.2933 15.7382 48.9582 14.8357ZM70.188 14.8025C69.8927 14.0592 69.2623 13.7738 68.4626 13.7208C66.6276 13.6013 65.6753 14.6631 65.5625 16.3421C65.4961 17.2945 65.4729 18.9336 65.5625 19.8694C65.6023 20.2576 65.6753 20.47 66.0867 20.5894C66.7935 20.7918 69.1528 20.7885 69.8662 20.6027C69.9558 20.5795 70.1449 20.5131 70.2046 20.46C70.2577 20.4069 70.3374 20.2178 70.3573 20.1382C70.5929 19.2522 70.5232 15.6519 70.188 14.8025ZM75.7892 16.0269H80.7499C81.085 12.0152 75.6033 12.2209 75.7892 16.0269ZM59.1318 11.8493C60.6847 11.6469 60.3761 9.42369 58.5544 9.71901C57.0944 9.9546 57.3068 12.0882 59.1318 11.8493ZM34.534 30.2354H37.8356V29.5021H35.4465V28.1085H37.7029V27.415H35.4465V26.0943H37.8356V25.361H34.534V30.2354ZM41.7842 29.1106H41.7245L40.1915 25.361H39.143V30.2354H39.9659V26.7712H40.0256L41.4391 30.2354H42.063L43.4765 26.7712H43.5396V30.2354H44.3592V25.361H43.3139L41.7842 29.1106ZM49.5721 26.9902V26.9969C49.5721 27.9691 48.8719 28.6261 47.8366 28.6261H46.7118V30.2388H45.7993V25.3643H45.8026L47.8366 25.361C48.8719 25.361 49.5721 26.0114 49.5721 26.9902ZM48.6496 26.9902C48.6496 26.4062 48.268 26.0711 47.6143 26.0711H46.7151V27.9193H47.6143C48.268 27.9193 48.6496 27.5809 48.6496 26.9969V26.9902ZM55.3656 27.7932V27.7999C55.3656 29.3661 54.4432 30.3549 52.9566 30.3549C51.4701 30.3549 50.5443 29.3661 50.5443 27.7999V27.7932C50.5443 26.2237 51.4767 25.2382 52.9566 25.2382C54.4365 25.2382 55.3656 26.2204 55.3656 27.7932ZM54.4365 27.7932C54.4365 26.6916 53.8625 25.9948 52.9566 25.9948C52.0508 25.9948 51.4734 26.6949 51.4734 27.7932V27.7999C51.4734 28.8949 52.0375 29.605 52.9566 29.605C53.8758 29.605 54.4365 28.8949 54.4365 27.7999V27.7932ZM60.8373 29.0177H60.7876L59.7689 25.361H58.9592L57.9572 29.0177H57.9041L57.0314 25.361H56.0791L57.4461 30.2354H58.3056L59.3375 26.7447H59.3906L60.4292 30.2354H61.2853L62.6524 25.361H61.71L60.8373 29.0177ZM63.7773 30.2354H67.0789V29.5021H64.6898V28.1085H66.9462V27.415H64.6898V26.0943H67.0789V25.361H63.7773V30.2354ZM71.2399 28.2677L72.3515 30.2354H71.3096L70.3108 28.4005H69.2988V30.2354H68.3863V25.361H70.4502C71.5452 25.361 72.2022 25.945 72.2022 26.8741V26.8807C72.2022 27.5278 71.8438 28.0587 71.2399 28.2677ZM71.2665 26.9006V26.894C71.2665 26.383 70.918 26.0678 70.3374 26.0678H69.3021V27.7335H70.354C70.928 27.7302 71.2665 27.4216 71.2665 26.9006ZM73.4863 30.2354H76.7879V29.5021H74.3988V28.1085H76.6552V27.415H74.3988V26.0943H76.7879V25.361H73.4863V30.2354ZM82.4123 27.7733V27.78C82.4123 29.3395 81.5396 30.2354 80.0132 30.2354H78.1019V25.361H80.0132C81.5296 25.361 82.4123 26.247 82.4123 27.7733ZM81.4799 27.7866C81.4799 26.7148 80.8892 26.0943 79.8904 26.0943H79.0111V29.5021H79.8904C80.9058 29.5021 81.4799 28.8882 81.4799 27.7932V27.7866Z" fill="#414141"/>
</svg>
